<svg xmlns="http://www.w3.org/2000/svg" width="71.504" height="64.462" viewBox="0 0 71.504 64.462">
  <g id="Group_2634" data-name="Group 2634" transform="translate(-325.491 -694.379) rotate(21)">
    <g id="Group_1" data-name="Group 1" transform="translate(568.774 526.141)">
      <g id="Path_1" data-name="Path 1" transform="translate(-568.774 -526.141)" fill="#FFFFFF">
        <path d="M 622.7243041992188 571.890869140625 C 621.96240234375 571.8908081054688 621.219482421875 571.6747436523438 620.5758056640625 571.2659301757812 L 604.443115234375 561.048095703125 C 601.5944213867188 564.0588989257812 597.9573364257812 566.1284790039062 593.9119873046875 567.037841796875 C 592.4105224609375 567.3748168945312 590.8753051757812 567.545654296875 589.348876953125 567.545654296875 C 584.697265625 567.545654296875 580.1101684570312 565.9456176757812 576.4324951171875 563.0403442382812 C 574.5979614257812 561.591064453125 573.0336303710938 559.8623046875 571.7830200195312 557.9020385742188 C 570.488525390625 555.8729858398438 569.56298828125 553.64453125 569.0321044921875 551.2786254882812 C 568.4171142578125 548.540283203125 568.3583374023438 545.7608642578125 568.857421875 543.0176391601562 C 569.3392944335938 540.368896484375 570.3179931640625 537.8665161132812 571.7664184570312 535.5799560546875 C 573.2147827148438 533.2935180664062 575.05908203125 531.3392944335938 577.2479858398438 529.7716674804688 C 579.514892578125 528.1481323242188 582.0528564453125 527.0133666992188 584.7913208007812 526.3988647460938 C 586.292724609375 526.0618896484375 587.8279418945312 525.8910522460938 589.3543090820312 525.8910522460938 C 594.005859375 525.8910522460938 598.593017578125 527.4910888671875 602.2706298828125 530.3963623046875 C 604.105224609375 531.8456420898438 605.6694946289062 533.5744018554688 606.920166015625 535.53466796875 C 608.2146606445312 537.563720703125 609.1402587890625 539.7921752929688 609.6712036132812 542.1580810546875 C 610.5784912109375 546.201904296875 610.2620239257812 550.3742065429688 608.7568969726562 554.2388305664062 L 624.8880615234375 564.456787109375 C 625.7977294921875 565.0335693359375 626.4287109375 565.9297485351562 626.6649169921875 566.9801635742188 C 626.8998413085938 568.0310668945312 626.7118530273438 569.1099853515625 626.1356811523438 570.0184326171875 C 625.56201171875 570.9264526367188 624.6663208007812 571.5563354492188 623.61376953125 571.791748046875 C 623.3223876953125 571.8574829101562 623.0230102539062 571.890869140625 622.7243041992188 571.890869140625 Z M 606.1930541992188 558.9241943359375 L 622.036865234375 568.9605712890625 C 622.2442016601562 569.0910034179688 622.4837646484375 569.16015625 622.7288208007812 569.16015625 C 623.1784057617188 569.16015625 623.5902709960938 568.9346923828125 623.83056640625 568.5570068359375 C 624.0165405273438 568.263916015625 624.0772705078125 567.9159545898438 624.0014038085938 567.577392578125 C 623.924072265625 567.2380981445312 623.72021484375 566.948974609375 623.4275512695312 566.76416015625 L 607.58349609375 556.7294311523438 C 607.1693725585938 557.4834594726562 606.7029418945312 558.2196655273438 606.1930541992188 558.9241943359375 Z M 589.3534545898438 528.6211547851562 C 588.0272216796875 528.6211547851562 586.6931762695312 528.7695922851562 585.3883666992188 529.0623779296875 C 580.6802978515625 530.1188354492188 576.6614990234375 532.951904296875 574.072265625 537.0397338867188 C 571.483154296875 541.1275024414062 570.6390380859375 545.9716186523438 571.6956176757812 550.6797485351562 C 573.5333862304688 558.8695678710938 580.9576416015625 564.8137817382812 589.3487548828125 564.8137817382812 C 590.6747436523438 564.8137817382812 592.008544921875 564.6653442382812 593.3130493164062 564.3726196289062 C 598.0218505859375 563.316162109375 602.0411987304688 560.4830322265625 604.6306762695312 556.3952026367188 C 607.2200317382812 552.3074951171875 608.064208984375 547.46337890625 607.0076293945312 542.755126953125 C 605.1698608398438 534.5653686523438 597.7451782226562 528.6211547851562 589.3534545898438 528.6211547851562 Z" stroke="none"/>
        <path d="M 622.7243041992188 571.640869140625 C 623.0059204101562 571.640869140625 623.2860107421875 571.6094360351562 623.5592041015625 571.5477905273438 C 624.5025634765625 571.3367919921875 625.3677978515625 570.7658081054688 625.924560546875 569.884521484375 C 626.4654541015625 569.0316772460938 626.6409912109375 568.0191650390625 626.4210205078125 567.0350341796875 C 626.1993408203125 566.0492553710938 625.607177734375 565.2088012695312 624.7542724609375 564.66796875 L 608.4483642578125 554.33935546875 C 609.9415283203125 550.6139526367188 610.3704833984375 546.4168701171875 609.42724609375 542.2128295898438 C 606.9429321289062 531.1429443359375 595.916015625 524.1587524414062 584.8460693359375 526.6427612304688 C 573.7762451171875 529.126953125 566.7900390625 540.1541748046875 569.2760009765625 551.223876953125 C 571.7601318359375 562.2938232421875 582.7874755859375 569.27783203125 593.857177734375 566.7939453125 C 598.0614013671875 565.8488159179688 601.6715087890625 563.6697387695312 604.402099609375 560.7261962890625 L 620.7098388671875 571.0548706054688 C 621.3345336914062 571.45166015625 622.0336303710938 571.6408081054688 622.7243041992188 571.640869140625 M 607.490966796875 556.3749389648438 L 623.56103515625 566.5527954101562 C 623.912109375 566.7744750976562 624.1531982421875 567.118408203125 624.245361328125 567.522705078125 C 624.3359375 567.9269409179688 624.26318359375 568.3418579101562 624.04150390625 568.6912231445312 C 623.582275390625 569.4127807617188 622.624755859375 569.6256103515625 621.903076171875 569.1717529296875 L 605.8331298828125 558.9921264648438 C 606.4500732421875 558.1622924804688 607.005126953125 557.2880249023438 607.490966796875 556.3749389648438 M 589.3534545898438 528.3711547851562 C 597.7470703125 528.3711547851562 605.3389892578125 534.1773681640625 607.2515869140625 542.7003784179688 C 609.46630859375 552.5697631835938 603.2388916015625 562.40185546875 593.3677978515625 564.6165771484375 C 583.4986572265625 566.83154296875 573.6663818359375 560.60400390625 571.45166015625 550.7344970703125 C 569.2369384765625 540.8651733398438 575.4642333984375 531.0330810546875 585.3336181640625 528.8184204101562 C 586.68017578125 528.5162963867188 588.0275268554688 528.3711547851562 589.3534545898438 528.3711547851562 M 622.7243041992188 572.140869140625 L 622.7243041992188 572.140869140625 C 621.9148559570312 572.1408081054688 621.1256103515625 571.9112548828125 620.4417724609375 571.4769287109375 L 604.4823608398438 561.368896484375 C 601.6209716796875 564.3355102539062 597.9940185546875 566.37646484375 593.9668579101562 567.2817993164062 C 592.4473266601562 567.6227416992188 590.8936767578125 567.795654296875 589.348876953125 567.795654296875 C 584.6412963867188 567.795654296875 579.9991455078125 566.176513671875 576.2775268554688 563.2365112304688 C 574.4210205078125 561.7698974609375 572.8379516601562 560.0203247070312 571.572265625 558.0364990234375 C 570.2621459960938 555.98291015625 569.325439453125 553.7276611328125 568.7881469726562 551.3333740234375 C 568.1658325195312 548.5621948242188 568.1063232421875 545.749267578125 568.6114501953125 542.972900390625 C 569.09912109375 540.2923583984375 570.0895385742188 537.760009765625 571.5552368164062 535.4461669921875 C 573.0208740234375 533.1324462890625 574.88720703125 531.1548461914062 577.1024169921875 529.5684204101562 C 579.396728515625 527.92529296875 581.9652709960938 526.7767944335938 584.736572265625 526.1549072265625 C 586.2559204101562 525.81396484375 587.8095092773438 525.6410522460938 589.3543090820312 525.6410522460938 C 594.0618896484375 525.6410522460938 598.7040405273438 527.2601928710938 602.4255981445312 530.2001953125 C 604.2821655273438 531.6668090820312 605.865234375 533.4163208007812 607.1309204101562 535.4002075195312 C 608.4410400390625 537.4537963867188 609.3778076171875 539.7090454101562 609.9151000976562 542.1033325195312 C 610.8182983398438 546.1288452148438 610.523193359375 550.2802734375 609.0636596679688 554.1372680664062 L 625.0218505859375 564.2455444335938 C 625.9879150390625 564.858154296875 626.657958984375 565.809814453125 626.9088745117188 566.9253540039062 C 627.1583862304688 568.0416870117188 626.958740234375 569.1875 626.3468017578125 570.15234375 C 625.7376098632812 571.1165771484375 624.7862548828125 571.7857055664062 623.6683349609375 572.0357055664062 C 623.359375 572.1054077148438 623.04150390625 572.140869140625 622.7243041992188 572.140869140625 Z M 606.5501098632812 558.8544311523438 L 622.170654296875 568.7493896484375 C 622.33740234375 568.854248046875 622.5308837890625 568.91015625 622.7288208007812 568.91015625 C 623.0924682617188 568.91015625 623.4254760742188 568.7279663085938 623.6196899414062 568.4227905273438 C 623.7696533203125 568.1864013671875 623.8187255859375 567.9053955078125 623.7574462890625 567.6320190429688 C 623.6951293945312 567.3585815429688 623.5303955078125 567.124755859375 623.2940673828125 566.9755859375 L 607.673095703125 557.0820922851562 C 607.330322265625 557.6876220703125 606.9544677734375 558.2808227539062 606.5501098632812 558.8544311523438 Z M 589.3534545898438 528.8711547851562 C 588.0455932617188 528.8711547851562 586.7299194335938 529.017578125 585.4430541992188 529.3062744140625 C 580.8002319335938 530.34814453125 576.8369750976562 533.14208984375 574.2835083007812 537.1735229492188 C 571.7300415039062 541.204833984375 570.8976440429688 545.9819946289062 571.9395141601562 550.625 C 573.751953125 558.70166015625 581.0736083984375 564.5637817382812 589.3487548828125 564.5637817382812 C 590.6563720703125 564.5637817382812 591.9717407226562 564.4174194335938 593.25830078125 564.1287231445312 C 597.9019775390625 563.0868530273438 601.86572265625 560.2928466796875 604.4194946289062 556.2614135742188 C 606.97314453125 552.2301635742188 607.8056640625 547.4529418945312 606.7637329101562 542.8098754882812 C 604.9512939453125 534.7332153320312 597.6292114257812 528.8711547851562 589.3534545898438 528.8711547851562 Z" stroke="none" fill="#FFFFFF"/>
      </g>
    </g>
  </g>
</svg>
