<svg width="500" height="500" viewBox="0 0 500 500" fill="none" xmlns="http://www.w3.org/2000/svg">
<path d="M96.276 239.958C125.135 265.161 173.443 242.901 172.656 204.031C172.651 202.505 172.573 200.979 172.422 199.463C172.266 197.943 172.042 196.437 171.74 194.937C171.437 193.443 171.068 191.963 170.62 190.5C170.177 189.042 169.661 187.609 169.073 186.198C168.484 184.786 167.833 183.411 167.109 182.062C166.391 180.719 165.604 179.411 164.75 178.146C163.901 176.875 162.995 175.651 162.021 174.474C161.052 173.292 160.026 172.161 158.948 171.083C157.865 170.005 156.734 168.984 155.552 168.016C154.375 167.047 153.146 166.141 151.875 165.292C150.604 164.443 149.297 163.661 147.953 162.943C146.604 162.224 145.224 161.568 143.812 160.984C142.401 160.401 140.969 159.885 139.505 159.443C138.042 159 136.562 158.63 135.068 158.333C133.568 158.036 132.062 157.807 130.542 157.661C129.021 157.51 127.5 157.432 125.969 157.432C82.6615 156.943 62.9687 213.255 96.276 239.958Z" fill="black"/>
<mask id="mask0_208_5" style="mask-type:luminance" maskUnits="userSpaceOnUse" x="39" y="244" width="175" height="96">
<path d="M39.4375 244H213.333V340H39.4375V244Z" fill="white"/>
</mask>
<g mask="url(#mask0_208_5)">
<path d="M212.578 304.37C212.578 278.891 195.964 256.568 171.151 244.016C169.719 245.562 168.203 247.031 166.62 248.427C165.031 249.818 163.38 251.125 161.656 252.344C159.938 253.568 158.156 254.698 156.318 255.734C154.479 256.776 152.594 257.719 150.661 258.563C148.724 259.406 146.755 260.151 144.74 260.792C142.729 261.432 140.693 261.969 138.625 262.401C136.563 262.839 134.479 263.161 132.38 263.38C130.276 263.599 128.172 263.708 126.063 263.708C123.953 263.714 121.844 263.604 119.745 263.391C117.646 263.177 115.563 262.854 113.495 262.427C111.427 261.995 109.391 261.464 107.375 260.823C105.365 260.182 103.391 259.443 101.453 258.604C99.5208 257.76 97.6302 256.823 95.7917 255.786C93.9531 254.75 92.1719 253.625 90.4479 252.406C88.724 251.187 87.0677 249.88 85.4792 248.495C83.8906 247.104 82.375 245.635 80.9375 244.094C56.0521 256.417 39.4375 278.891 39.4375 304.37C39.4427 305.521 39.5 306.672 39.6146 307.818C39.7292 308.964 39.8958 310.099 40.125 311.229C40.349 312.359 40.6302 313.474 40.9635 314.578C41.3021 315.677 41.6875 316.76 42.1302 317.823C42.5729 318.891 43.0625 319.927 43.6094 320.943C44.151 321.958 44.7448 322.943 45.3854 323.901C46.0208 324.859 46.7083 325.781 47.4375 326.672C48.1719 327.563 48.9427 328.417 49.7604 329.229C50.5729 330.047 51.4271 330.818 52.3177 331.547C53.2031 332.276 54.1302 332.964 55.0885 333.604C56.0469 334.245 57.0313 334.833 58.0469 335.38C59.0625 335.922 60.1042 336.417 61.1667 336.854C62.2292 337.297 63.3125 337.688 64.4167 338.021C65.5156 338.354 66.6354 338.635 67.7604 338.865C68.8906 339.089 70.0313 339.26 71.1771 339.375C72.3229 339.484 73.474 339.547 74.625 339.547H177.391C178.547 339.547 179.693 339.484 180.839 339.375C181.984 339.26 183.125 339.089 184.255 338.865C185.385 338.635 186.5 338.354 187.599 338.021C188.703 337.688 189.786 337.297 190.849 336.854C191.911 336.417 192.953 335.922 193.969 335.38C194.984 334.833 195.969 334.245 196.927 333.604C197.885 332.964 198.813 332.276 199.703 331.547C200.589 330.818 201.443 330.047 202.255 329.229C203.073 328.417 203.844 327.563 204.578 326.672C205.307 325.781 205.995 324.859 206.63 323.901C207.271 322.943 207.865 321.958 208.406 320.943C208.953 319.927 209.443 318.891 209.885 317.823C210.328 316.76 210.714 315.677 211.052 314.578C211.385 313.474 211.667 312.359 211.891 311.229C212.12 310.099 212.286 308.964 212.401 307.818C212.516 306.672 212.573 305.521 212.578 304.37Z" fill="black"/>
</g>
<path d="M327.224 204.031C329.255 265.714 418.516 265.698 420.521 204.031C418.349 142.328 329.422 142.401 327.224 204.031Z" fill="black"/>
<mask id="mask1_208_5" style="mask-type:luminance" maskUnits="userSpaceOnUse" x="286" y="244" width="175" height="96">
<path d="M286.667 244H460.437V340H286.667V244Z" fill="white"/>
</mask>
<g mask="url(#mask1_208_5)">
<path d="M418.943 244.094C417.495 245.625 415.979 247.078 414.385 248.453C412.792 249.833 411.135 251.125 409.411 252.333C407.687 253.542 405.906 254.656 404.068 255.682C402.229 256.708 400.344 257.641 398.406 258.474C396.474 259.307 394.505 260.036 392.495 260.672C390.49 261.302 388.453 261.833 386.391 262.255C384.328 262.682 382.25 263 380.156 263.214C378.062 263.427 375.958 263.531 373.854 263.526C371.75 263.526 369.651 263.417 367.557 263.203C365.464 262.984 363.385 262.661 361.323 262.234C359.26 261.807 357.224 261.276 355.219 260.641C353.214 260.005 351.24 259.266 349.312 258.432C347.38 257.594 345.495 256.661 343.656 255.63C341.818 254.604 340.042 253.484 338.318 252.271C336.594 251.063 334.937 249.766 333.349 248.385C331.76 247.005 330.245 245.552 328.802 244.016C303.917 256.495 287.302 278.891 287.302 304.37C287.307 305.521 287.365 306.672 287.479 307.818C287.594 308.964 287.76 310.099 287.99 311.229C288.214 312.359 288.495 313.474 288.828 314.578C289.161 315.677 289.552 316.76 289.995 317.823C290.437 318.891 290.927 319.927 291.469 320.943C292.016 321.958 292.604 322.943 293.245 323.901C293.885 324.859 294.573 325.781 295.302 326.672C296.036 327.563 296.807 328.417 297.62 329.229C298.437 330.047 299.286 330.818 300.177 331.547C301.068 332.276 301.995 332.964 302.953 333.604C303.906 334.245 304.896 334.833 305.911 335.38C306.927 335.922 307.964 336.417 309.031 336.854C310.094 337.297 311.177 337.688 312.281 338.021C313.38 338.354 314.495 338.635 315.625 338.865C316.755 339.089 317.896 339.26 319.042 339.375C320.187 339.484 321.333 339.547 322.49 339.547H425.255C426.406 339.547 427.557 339.484 428.703 339.375C429.849 339.26 430.99 339.089 432.115 338.865C433.245 338.635 434.365 338.354 435.464 338.021C436.568 337.688 437.651 337.297 438.714 336.854C439.776 336.417 440.818 335.922 441.833 335.38C442.849 334.833 443.833 334.245 444.792 333.604C445.75 332.964 446.672 332.276 447.562 331.547C448.453 330.818 449.307 330.047 450.12 329.229C450.937 328.417 451.708 327.563 452.437 326.672C453.172 325.781 453.854 324.859 454.495 323.901C455.135 322.943 455.729 321.958 456.271 320.943C456.818 319.927 457.307 318.891 457.75 317.823C458.193 316.76 458.578 315.677 458.917 314.578C459.25 313.474 459.531 312.359 459.755 311.229C459.984 310.099 460.151 308.964 460.266 307.818C460.38 306.672 460.437 305.521 460.437 304.37C460.437 278.891 443.823 256.417 418.943 244.094Z" fill="black"/>
</g>
<path d="M388.141 387.672C320.245 458.318 200.099 463.964 125.891 400.51L148.938 400.516C149.422 400.505 149.906 400.448 150.38 400.344C150.859 400.24 151.323 400.094 151.771 399.901C152.219 399.708 152.641 399.474 153.042 399.198C153.448 398.922 153.818 398.609 154.156 398.26C154.5 397.911 154.802 397.536 155.073 397.13C155.339 396.724 155.568 396.292 155.75 395.839C155.938 395.391 156.073 394.927 156.167 394.448C156.26 393.969 156.307 393.484 156.307 393C156.307 392.51 156.26 392.026 156.167 391.552C156.073 391.073 155.938 390.604 155.75 390.156C155.568 389.703 155.339 389.276 155.073 388.87C154.802 388.458 154.5 388.083 154.156 387.734C153.818 387.385 153.443 387.073 153.042 386.797C152.641 386.526 152.219 386.292 151.771 386.094C151.323 385.901 150.859 385.755 150.38 385.651C149.906 385.547 149.422 385.49 148.938 385.484H106.5C106.005 385.484 105.516 385.536 105.031 385.635C104.547 385.734 104.073 385.875 103.62 386.068C103.161 386.255 102.724 386.49 102.313 386.76C101.901 387.036 101.521 387.344 101.167 387.693C100.818 388.042 100.5 388.422 100.224 388.828C99.9427 389.24 99.7083 389.667 99.5104 390.125C99.3177 390.578 99.1667 391.047 99.0625 391.531C98.9583 392.016 98.901 392.505 98.8906 393V435.516C98.901 436 98.9583 436.484 99.0625 436.958C99.1667 437.438 99.3125 437.901 99.5052 438.349C99.6979 438.797 99.9323 439.219 100.208 439.62C100.484 440.026 100.797 440.396 101.146 440.74C101.495 441.078 101.87 441.385 102.276 441.651C102.688 441.922 103.115 442.146 103.568 442.328C104.016 442.516 104.484 442.656 104.964 442.75C105.438 442.844 105.922 442.891 106.411 442.891C106.901 442.891 107.38 442.844 107.859 442.75C108.339 442.656 108.802 442.516 109.255 442.328C109.708 442.146 110.135 441.922 110.542 441.651C110.953 441.385 111.328 441.078 111.677 440.74C112.026 440.396 112.339 440.026 112.615 439.62C112.891 439.219 113.125 438.797 113.318 438.349C113.51 437.901 113.656 437.438 113.76 436.958C113.865 436.484 113.917 436 113.927 435.516V410.042C193.677 480.438 324.854 475.245 398.771 398.297C399.109 397.943 399.406 397.562 399.672 397.156C399.932 396.745 400.156 396.313 400.333 395.859C400.516 395.406 400.646 394.943 400.734 394.464C400.828 393.984 400.87 393.5 400.865 393.016C400.859 392.526 400.807 392.047 400.708 391.568C400.609 391.089 400.464 390.63 400.276 390.177C400.089 389.729 399.854 389.302 399.583 388.901C399.313 388.495 399.005 388.12 398.661 387.776C398.318 387.432 397.943 387.125 397.536 386.854C397.13 386.583 396.708 386.349 396.255 386.161C395.807 385.974 395.344 385.828 394.87 385.729C394.391 385.635 393.906 385.583 393.422 385.578C392.932 385.573 392.453 385.615 391.974 385.703C391.495 385.792 391.026 385.927 390.573 386.104C390.12 386.286 389.693 386.505 389.281 386.771C388.87 387.031 388.49 387.333 388.141 387.672Z" fill="black"/>
<path d="M111.74 111.339C179.635 40.6927 299.781 35.0417 373.99 98.4948H350.943C350.453 98.5052 349.974 98.5573 349.495 98.6615C349.021 98.7656 348.557 98.9115 348.109 99.1094C347.661 99.3021 347.24 99.5365 346.833 99.8125C346.432 100.089 346.063 100.396 345.719 100.745C345.38 101.094 345.073 101.474 344.807 101.88C344.536 102.286 344.313 102.714 344.13 103.167C343.943 103.62 343.807 104.083 343.708 104.563C343.615 105.042 343.568 105.521 343.568 106.01C343.568 106.495 343.615 106.979 343.714 107.458C343.807 107.938 343.943 108.401 344.13 108.854C344.313 109.302 344.542 109.734 344.807 110.141C345.073 110.547 345.38 110.927 345.719 111.271C346.063 111.62 346.432 111.932 346.839 112.208C347.24 112.484 347.661 112.719 348.109 112.911C348.557 113.104 349.021 113.255 349.495 113.354C349.974 113.458 350.453 113.516 350.943 113.526H393.38C393.875 113.521 394.365 113.474 394.849 113.375C395.333 113.276 395.807 113.13 396.26 112.943C396.719 112.75 397.156 112.521 397.568 112.245C397.979 111.974 398.359 111.661 398.714 111.313C399.063 110.969 399.38 110.589 399.656 110.182C399.938 109.771 400.172 109.339 400.37 108.885C400.563 108.432 400.714 107.958 400.818 107.479C400.922 106.995 400.979 106.505 400.984 106.01V63.4948C400.979 63.0052 400.922 62.5261 400.818 62.0469C400.714 61.5729 400.568 61.1094 400.375 60.6615C400.182 60.2136 399.948 59.7865 399.672 59.3854C399.396 58.9844 399.083 58.6094 398.734 58.2708C398.385 57.9271 398.01 57.625 397.604 57.3542C397.193 57.0886 396.766 56.8594 396.313 56.6771C395.859 56.4948 395.396 56.3542 394.917 56.2604C394.438 56.1667 393.958 56.1198 393.469 56.1198C392.979 56.1198 392.5 56.1667 392.021 56.2604C391.542 56.3542 391.073 56.4948 390.625 56.6771C390.172 56.8594 389.745 57.0886 389.333 57.3542C388.927 57.625 388.552 57.9271 388.203 58.2708C387.854 58.6094 387.542 58.9844 387.266 59.3854C386.99 59.7865 386.755 60.2136 386.563 60.6615C386.37 61.1094 386.224 61.5729 386.12 62.0469C386.016 62.5261 385.958 63.0052 385.953 63.4948V88.9636C306.203 18.5677 175.026 23.7604 101.109 100.714C100.771 101.063 100.474 101.443 100.208 101.854C99.9479 102.266 99.724 102.693 99.5469 103.146C99.3646 103.599 99.2344 104.068 99.1458 104.547C99.0521 105.026 99.0104 105.505 99.0156 105.995C99.0208 106.479 99.0729 106.964 99.1719 107.438C99.2708 107.917 99.4167 108.38 99.6042 108.828C99.7917 109.276 100.026 109.703 100.297 110.109C100.568 110.51 100.875 110.885 101.219 111.229C101.563 111.573 101.938 111.88 102.344 112.156C102.745 112.427 103.172 112.656 103.625 112.844C104.073 113.031 104.536 113.177 105.01 113.276C105.49 113.375 105.969 113.427 106.458 113.432C106.943 113.438 107.427 113.396 107.906 113.307C108.385 113.214 108.854 113.083 109.302 112.901C109.755 112.724 110.188 112.5 110.599 112.24C111.01 111.974 111.391 111.677 111.74 111.339Z" fill="black"/>
</svg>
