<svg xmlns="http://www.w3.org/2000/svg" xmlns:xlink="http://www.w3.org/1999/xlink" width="120" height="120" viewBox="0 0 120 120">
  <defs>
    <clipPath id="clip-drop_down_icons_6">
      <rect width="120" height="120"/>
    </clipPath>
  </defs>
  <g id="drop_down_icons_6" data-name="drop down icons 6" clip-path="url(#clip-drop_down_icons_6)">
    <g id="Group_1073" data-name="Group 1073" transform="translate(7)">
      <g id="Ellipse_4" data-name="Ellipse 4" transform="translate(21.36)" fill="none" stroke="#302e47" stroke-miterlimit="10" stroke-width="5">
        <ellipse cx="31.644" cy="31.644" rx="31.644" ry="31.644" stroke="none"/>
        <ellipse cx="31.644" cy="31.644" rx="29.144" ry="29.144" fill="none"/>
      </g>
      <g id="Path_125" data-name="Path 125" transform="translate(-538.486 -659.071)" fill="none" stroke-miterlimit="10">
        <path d="M637.239,735.125a64.083,64.083,0,0,0-22.172-14.805,38.908,38.908,0,0,1-47.151,0,64.03,64.03,0,0,0-22.171,14.805c-15.947,16.36-3.832,43.946,19.01,43.946h53.473C641.071,779.071,653.181,751.485,637.239,735.125Z" stroke="none"/>
        <path d="M 567.3047485351562 726.0098876953125 C 564.3430786132812 727.347900390625 561.4857177734375 728.9345703125 558.7828979492188 730.74365234375 C 555.3723754882812 733.0264282226562 552.1901245117188 735.6746826171875 549.3243408203125 738.6152954101562 C 547.7691650390625 740.2107543945312 546.5006713867188 741.9798583984375 545.5540161132812 743.8734130859375 C 544.6625366210938 745.6566772460938 544.0508422851562 747.5595703125 543.7359008789062 749.529296875 C 543.126708984375 753.3395385742188 543.6293334960938 757.3089599609375 545.189453125 761.00830078125 C 546.7869873046875 764.7965087890625 549.3668212890625 768.017822265625 552.6500854492188 770.3240356445312 C 554.3452758789062 771.5147705078125 556.202392578125 772.4375 558.1699829101562 773.0667114257812 C 560.2544555664062 773.7333374023438 562.4697875976562 774.0712890625 564.75439453125 774.0712890625 L 618.2275390625 774.0712890625 C 620.5120239257812 774.0712890625 622.7271118164062 773.7333984375 624.8113403320312 773.0669555664062 C 626.7786254882812 772.4378662109375 628.635498046875 771.5153198242188 630.3303833007812 770.3248901367188 C 633.6130981445312 768.0192260742188 636.192626953125 764.7985229492188 637.790283203125 761.0109252929688 C 639.3507690429688 757.311279296875 639.8538208007812 753.3413696289062 639.244873046875 749.5303344726562 C 638.9301147460938 747.5603637695312 638.318603515625 745.6571044921875 637.42724609375 743.8735961914062 C 636.4807739257812 741.979736328125 635.2125244140625 740.21044921875 633.6591186523438 738.6163330078125 C 630.7898559570312 735.674560546875 627.6063232421875 733.0257568359375 624.1969604492188 730.7435302734375 C 621.4940795898438 728.9342651367188 618.6375122070312 727.3477172851562 615.6768798828125 726.010009765625 C 612.5838623046875 728.04931640625 609.2638549804688 729.6858520507812 605.7736206054688 730.8892822265625 C 601.1802978515625 732.4730834960938 596.3741455078125 733.276123046875 591.488525390625 733.276123046875 C 586.6053466796875 733.276123046875 581.8005981445312 732.4730224609375 577.2078247070312 730.8892211914062 C 573.7178955078125 729.6856689453125 570.3978271484375 728.049072265625 567.3047485351562 726.0098876953125 M 567.915283203125 720.320068359375 C 574.473876953125 725.29150390625 582.6259765625 728.276123046875 591.488525390625 728.276123046875 C 600.3564453125 728.276123046875 608.508544921875 725.29150390625 615.06640625 720.320068359375 C 623.485595703125 723.669921875 631.021484375 728.7509765625 637.238525390625 735.125244140625 C 653.180908203125 751.485107421875 641.07080078125 779.0712890625 618.2275390625 779.0712890625 L 564.75439453125 779.0712890625 C 541.911865234375 779.0712890625 529.797119140625 751.485107421875 545.743896484375 735.125244140625 C 551.9560546875 728.7509765625 559.49560546875 723.669921875 567.915283203125 720.320068359375 Z" stroke="none" fill="#302e47"/>
      </g>
    </g>
  </g>
</svg>
