<svg xmlns="http://www.w3.org/2000/svg" width="19.302" height="22.071" viewBox="0 0 19.302 22.071">
  <g id="Group_920" data-name="Group 920" transform="translate(0 -0.001)">
    <path id="Path_13" data-name="Path 13" d="M25.474,113.031c-5.822-1.755-9.772-16.852.643-17,1.4-.015,2.311.746,3.394.951.8.146,1.668-.892,4.432-.892a5.646,5.646,0,0,1,4.4,2.15c-3.5,2.267-3.642,6.671.6,8.85-.41,1.755-2.867,5.047-4.155,5.691-1.58.79-3.525-.6-5.076-.658-1.39-.044-2.78,1.039-4.242.907Z" transform="translate(-19.645 -90.971)" fill="#fff" fill-rule="evenodd"/>
    <path id="Path_14" data-name="Path 14" d="M169.993,21.637c2.926.146,4.857-3.086,4.564-5.31A5.18,5.18,0,0,0,169.993,21.637Z" transform="translate(-160.439 -16.326)" fill="#fff" fill-rule="evenodd"/>
  </g>
</svg>
