<svg xmlns="http://www.w3.org/2000/svg" width="20.776" height="29.752" viewBox="0 0 20.776 29.752">
  <g id="Group_35" data-name="Group 35" transform="translate(0 0)">
    <path id="Path_25" data-name="Path 25" d="M922.509,383.972a.632.632,0,0,0-1.221.326,6.007,6.007,0,0,0,1.533,2.645.631.631,0,0,0,.9-.886A4.73,4.73,0,0,1,922.509,383.972Z" transform="translate(-917.442 -370.51)" fill="#b03b4b"/>
    <path id="Path_26" data-name="Path 26" d="M935.681,377.59h-2.152a7.21,7.21,0,0,0,.275-1.894.631.631,0,0,0-.631-.631H919.021l10.272-7.925a.631.631,0,0,0,.113-.886,5.959,5.959,0,0,0-4.866-2.22,9.445,9.445,0,0,0-8.8,6.877,6.172,6.172,0,0,0,.344,4.172.623.623,0,0,0-.533.612.631.631,0,0,0,.631.631h.4a9.393,9.393,0,0,0,5.89,7.5l-3.052,5.522a2.256,2.256,0,0,0-.725-.129,2.283,2.283,0,1,0,2.284,2.282c0-.008,0-.015,0-.023h9.03l.91,1.943a.632.632,0,0,0,.572.364.623.623,0,0,0,.268-.059.632.632,0,0,0,.305-.84l-4.232-9.041a9.507,9.507,0,0,0,5.247-4.994h2.6a.631.631,0,0,0,0-1.263Zm-18.711-6.377a8.182,8.182,0,0,1,7.571-5.915,4.9,4.9,0,0,1,3.443,1.258l-10.646,8.215A4.873,4.873,0,0,1,916.97,371.213Zm1.728,21.311a1.02,1.02,0,1,1,1.021-1.021A1.021,1.021,0,0,1,918.7,392.524Zm10.72-2.307h-8.836c-.035-.051-.079-.094-.117-.142l3.263-5.9a7.015,7.015,0,0,0,2.865.006Zm-4.242-7.155c-3.894,0-6.967-3.488-7.329-6.734h14.659C932.143,379.573,929.07,383.061,925.176,383.061Z" transform="translate(-915.536 -364.035)" fill="#b03b4b"/>
  </g>
</svg>
