<svg xmlns="http://www.w3.org/2000/svg" width="34.183" height="34.94" viewBox="0 0 34.183 34.94">
  <g id="Group_122" data-name="Group 122" transform="translate(0.5 0.5)">
    <path id="Path_153" data-name="Path 153" d="M693.1,718.922H678.317a1.875,1.875,0,0,1-1.872-1.872V702.266a1.875,1.875,0,0,1,1.872-1.872H693.1a1.873,1.873,0,0,1,1.871,1.872V717.05A1.873,1.873,0,0,1,693.1,718.922ZM678.317,701.6a.662.662,0,0,0-.662.662V717.05a.662.662,0,0,0,.662.662H693.1a.662.662,0,0,0,.661-.662V702.266a.662.662,0,0,0-.661-.662Z" transform="translate(-676.445 -700.394)" fill="#b03b4b" stroke="#b03b4b" stroke-width="1"/>
    <path id="Path_154" data-name="Path 154" d="M693.1,735.93H678.317a1.874,1.874,0,0,1-1.872-1.872V725a1.874,1.874,0,0,1,1.872-1.871H693.1A1.873,1.873,0,0,1,694.972,725v9.06A1.873,1.873,0,0,1,693.1,735.93Zm-14.784-11.592a.662.662,0,0,0-.662.661v9.06a.662.662,0,0,0,.662.662H693.1a.662.662,0,0,0,.661-.662V725a.661.661,0,0,0-.661-.661Z" transform="translate(-676.445 -701.991)" fill="#b03b4b" stroke="#b03b4b" stroke-width="1"/>
    <path id="Path_155" data-name="Path 155" d="M709.385,734.334H701.5a1.874,1.874,0,0,1-1.871-1.872v-30.2a1.874,1.874,0,0,1,1.871-1.872h7.881a1.874,1.874,0,0,1,1.872,1.872v30.2A1.874,1.874,0,0,1,709.385,734.334ZM701.5,701.6a.663.663,0,0,0-.662.662v30.2a.663.663,0,0,0,.662.662h7.881a.662.662,0,0,0,.662-.662v-30.2a.662.662,0,0,0-.662-.662Z" transform="translate(-678.073 -700.394)" fill="#b03b4b" stroke="#b03b4b" stroke-width="1"/>
  </g>
</svg>
