<svg xmlns="http://www.w3.org/2000/svg" xmlns:xlink="http://www.w3.org/1999/xlink" width="120" height="120" viewBox="0 0 120 120">
  <defs>
    <clipPath id="clip-drop_down_icons_2">
      <rect width="120" height="120"/>
    </clipPath>
  </defs>
  <g id="drop_down_icons_2" data-name="drop down icons 2" clipPath="url(#clip-drop_down_icons_2)">
    <g id="Group_3" data-name="Group 3" transform="translate(0 8)">
      <path id="Path_3" data-name="Path 3" d="M525.353,671.838H466.182c-9.835,0-18.144,8.041-18.144,17.559v24.821c0,9.548,8.309,17.62,18.144,17.62h1.857v12.239a5.812,5.812,0,0,0,9.884,4.571l17.669-16.81h29.761a17.672,17.672,0,0,0,17.684-17.62V689.4A17.64,17.64,0,0,0,525.353,671.838Zm12.683,42.38a12.665,12.665,0,0,1-12.683,12.619H494.593a2.487,2.487,0,0,0-1.722.689L474.505,745c-.415.4-1.462.362-1.466-.92V729.34a2.5,2.5,0,0,0-2.5-2.5h-4.356c-7.122,0-13.143-5.78-13.143-12.619V689.4c0-6.805,6.021-12.56,13.143-12.56h59.171a12.636,12.636,0,0,1,12.683,12.56Z" transform="translate(-448.038 -646.84)" fill="white"/>
      <path id="Path_4" data-name="Path 4" d="M523.636,665.2H474.375c-8.968,0-16.12,6.8-17.009,16.177a2.5,2.5,0,1,0,4.974.467c.652-6.854,5.6-11.644,12.035-11.644h49.261c7.25,0,13.614,6.014,13.614,12.876v19.368a13.2,13.2,0,0,1-11.783,12.785,2.5,2.5,0,0,0,.279,4.985c.09,0,.188-.008.282-.015a18.263,18.263,0,0,0,16.222-17.755V683.08C542.25,673.392,533.727,665.2,523.636,665.2Z" transform="translate(-422.25 -665.204)" fill="white"/>
      <path id="Path_5" data-name="Path 5" d="M505.437,681.127h-49.57a2.5,2.5,0,1,0,0,5h49.57a2.5,2.5,0,1,0,0-5Z" transform="translate(-433.281 -621.127)" fill="white"/>
      <path id="Path_6" data-name="Path 6" d="M505.437,677.146h-49.57a2.5,2.5,0,0,0,0,5h49.57a2.5,2.5,0,0,0,0-5Z" transform="translate(-433.281 -632.147)" fill="white"/>
    </g>
  </g>
</svg>
