<svg id="Group_1055" data-name="Group 1055" xmlns="http://www.w3.org/2000/svg" width="25.889" height="25.888" viewBox="0 0 25.889 25.888">
  <path id="Path_21" data-name="Path 21" d="M936.113,225.2a2.715,2.715,0,0,0,0-3.84l-2.466-2.467a2.5,2.5,0,0,0-3.456,0l-15.462,15.462a.533.533,0,0,0-.147.323c-.234.525-.853,2.07-2.77,6.949a1.307,1.307,0,0,0,.315,1.417,1.322,1.322,0,0,0,.933.4,1.215,1.215,0,0,0,.463-.091c4.888-1.886,6.453-2.5,6.989-2.738a.541.541,0,0,0,.332-.149ZM916.19,241.159l-2.17-2.17c.516-1.305,1-2.533,1.3-3.272l4.156,4.156C918.735,240.167,917.5,240.649,916.19,241.159Zm14.768-21.5a1.389,1.389,0,0,1,1.92,0l2.466,2.467a1.627,1.627,0,0,1,0,2.3L920.46,239.317l-1.523-1.523,12.22-12.22a.543.543,0,1,0-.768-.767l-12.22,12.22-2.287-2.287Zm-17.837,22.685a.224.224,0,0,1-.225-.069.242.242,0,0,1-.077-.244l.765-1.943,1.5,1.5Z" transform="translate(-911.637 -217.851)" fill="#b03b4b"/>
  <path id="Path_22" data-name="Path 22" d="M916.843,230.1a.543.543,0,0,0,.768-.768l-.758-.758,1.034-1.035a.543.543,0,1,0-.767-.767l-1.035,1.034-1.135-1.135,3.116-3.117a.543.543,0,0,0-.767-.768l-3.117,3.117-1.261-1.261,5.589-5.589,4.69,4.691a.543.543,0,1,0,.768-.767l-5.074-5.075a.543.543,0,0,0-.768,0l-6.357,6.356a.543.543,0,0,0,0,.768Z" transform="translate(-911.61 -217.739)" fill="#b03b4b"/>
  <path id="Path_23" data-name="Path 23" d="M941.548,240.553l-5.239-5.239a.543.543,0,0,0-.768.767l4.855,4.855-5.59,5.589-1.216-1.216,3.117-3.117a.543.543,0,0,0-.768-.768l-3.117,3.118-1.216-1.216,1.034-1.035a.543.543,0,0,0-.768-.768l-1.034,1.035-.886-.886a.543.543,0,0,0-.768.768l5.238,5.239a.542.542,0,0,0,.767,0l6.358-6.356a.543.543,0,0,0,0-.768Z" transform="translate(-915.819 -221.948)" fill="#b03b4b"/>
</svg>
