<svg xmlns="http://www.w3.org/2000/svg" width="28.301" height="17.666" viewBox="0 0 28.301 17.666">
  <path id="Path_128" data-name="Path 128" d="M673.706,712.672l-3.152-3.749a1.6,1.6,0,0,0-1.223-.57h-4.378v-1.27a1.19,1.19,0,0,0-1.189-1.189h-16.2a1.19,1.19,0,0,0-1.189,1.189V719.2a1.19,1.19,0,0,0,1.189,1.189h.444a3.028,3.028,0,0,0,6.014,0h12.023a3.028,3.028,0,0,0,6.014,0h.406a1.713,1.713,0,0,0,1.711-1.711v-4.717A2,2,0,0,0,673.706,712.672Zm-22.692,9.65a2.305,2.305,0,1,1,2.306-2.306A2.308,2.308,0,0,1,651.014,722.321Zm3.007-2.676a3.028,3.028,0,0,0-6.014,0h-.444a.45.45,0,0,1-.45-.449V707.083a.45.45,0,0,1,.45-.45h16.2a.45.45,0,0,1,.449.45V719.2a.449.449,0,0,1-.449.449Zm15.03,2.676a2.305,2.305,0,1,1,2.306-2.306A2.308,2.308,0,0,1,669.051,722.321Zm4.385-3.647a.972.972,0,0,1-.972.972h-.406a3.027,3.027,0,0,0-6.013,0h-1.181a1.173,1.173,0,0,0,.09-.449v-10.1h4.378a.856.856,0,0,1,.657.306l3.152,3.749a1.262,1.262,0,0,1,.3.81Z" transform="translate(-646.124 -705.644)" fill="#b03b4b" stroke="#b03b4b" stroke-width="0.5"/>
</svg>
