<svg xmlns="http://www.w3.org/2000/svg" width="23.736" height="27.581" viewBox="0 0 23.736 27.581">
  <g id="Group_1047" data-name="Group 1047" transform="translate(-871.411 -3350)">
    <path id="Path_235" data-name="Path 235" d="M1009.24,425.136" transform="translate(-115.578 2929.706)" fill="current" stroke="#b03b4b" stroke-miterlimit="10" strokeWidth="1.3"/>
    <g id="Group_1041" data-name="Group 1041" transform="translate(-115.578 2929.706)">
      <path id="Path_236" data-name="Path 236" d="M1002.254,426.837h-3.8a1.7,1.7,0,0,1,0-3.4h3.8a1.7,1.7,0,0,1,0,3.4Zm-3.8-2.1a.4.4,0,0,0,0,.8h3.8a.4.4,0,0,0,0-.8Z" fill="#b03b4b"/>
      <path id="Path_237" data-name="Path 237" d="M1010.535,423.66l-2.458-2.46-.46-.191h-2.767a4.8,4.8,0,0,0-2.5-.715H991.831a4.839,4.839,0,0,0-.073,9.677l-1.265,9.061a2.709,2.709,0,0,0-1.9,2.575v3.553a2.717,2.717,0,0,0,2.714,2.715H1001a2.719,2.719,0,0,0,2.716-2.715v-1.351a2.72,2.72,0,0,0-1.11-2.188l-3-2.2a2.707,2.707,0,0,0-1.607-.526h-.179l.1-3.6h3.861l.6-.9a5.853,5.853,0,0,1,.126-4.111l.142-.338a4.833,4.833,0,0,0,2.158-.684h2.807l.46-.191,2.458-2.458.19-.46v-2.036ZM998,440.193a1.433,1.433,0,0,1,.839.273l3,2.2a1.421,1.421,0,0,1,.577,1.141v1.351a1.417,1.417,0,0,1-1.415,1.415h-9.686a1.416,1.416,0,0,1-1.414-1.415v-3.553a1.415,1.415,0,0,1,1.414-1.414Zm-1.345-5.475-.126,4.174h-4.7l1.244-8.914h4.81Zm4.269-.725h-2.74l1.035-4.015h2.023A7.151,7.151,0,0,0,1000.922,433.993Zm1.43-5.316H991.831a3.541,3.541,0,1,1,0-7.082h10.521a3.541,3.541,0,1,1,0,7.082Zm7.073-2.792-2.077,2.078h-1.1a4.738,4.738,0,0,0,.015-5.653h1.081l2.077,2.078Z" fill="#b03b4b"/>
    </g>
  </g>
</svg>
