<svg xmlns="http://www.w3.org/2000/svg" width="53.845" height="50.992" viewBox="0 0 53.845 50.992">
  <path id="Path_79" data-name="Path 79" d="M615.266,680.874a2.653,2.653,0,0,0-2.5-1.862l-16.378-.332-5.375-15.292a2.686,2.686,0,0,0-5.068,0l-5.374,15.3-16.384.332a2.688,2.688,0,0,0-1.554,4.836l13.03,9.779-4.73,15.476a2.639,2.639,0,0,0,.4,2.369,2.722,2.722,0,0,0,2.181,1.11,2.667,2.667,0,0,0,1.513-.476l13.456-9.266,13.458,9.266a2.674,2.674,0,0,0,1.512.476h0a2.726,2.726,0,0,0,2.178-1.11,2.645,2.645,0,0,0,.4-2.369l-4.736-15.476,13.033-9.78A2.65,2.65,0,0,0,615.266,680.874Zm-2.309,1.149-13.671,10.26a1.14,1.14,0,0,0-.407,1.247l4.972,16.24a.372.372,0,0,1-.054.35.454.454,0,0,1-.344.185.394.394,0,0,1-.225-.079l-14.1-9.708a1.138,1.138,0,0,0-1.291,0l-14.1,9.711a.408.408,0,0,1-.57-.109.366.366,0,0,1-.048-.35l4.965-16.24a1.14,1.14,0,0,0-.407-1.247L564,682.027a.411.411,0,0,1,.234-.737l17.172-.347a1.139,1.139,0,0,0,1.052-.761l5.635-16.045a.387.387,0,0,1,.387-.269.382.382,0,0,1,.384.272l5.637,16.042a1.139,1.139,0,0,0,1.052.761l17.167.347a.386.386,0,0,1,.379.282A.381.381,0,0,1,612.956,682.024Z" transform="translate(-561.556 -661.59)" fill="#302e47"/>
</svg>
