<svg xmlns="http://www.w3.org/2000/svg" width="41.407" height="29.035" viewBox="0 0 41.407 29.035">
  <g id="Group_1044" data-name="Group 1044" transform="translate(-453 -3418)">
    <path id="Path_27" data-name="Path 27" d="M599.87,231.669c0-9.114-5.07-10.343-10.03-10.343h-3.65a.881.881,0,0,0-.708.357,3.377,3.377,0,0,1-5.354,0,.879.879,0,0,0-.707-.357h-2.215a2.76,2.76,0,0,0-2.7,2.441l-.884,6.949-1.248,9.829h0L572,243.463c-.277,2.186-.277,2.186-.277,2.253,0,2.849,6.934,3.61,11.031,3.61s11.03-.761,11.03-3.61c0-.044,0-.081-.566-4.422A10.17,10.17,0,0,0,599.87,231.669Zm-17.114,15.895c-5.629,0-9.03-1.224-9.274-1.757.01-.082.11-.879.268-2.122l.368-2.918h0l1.248-9.829.885-6.95a1,1,0,0,1,.955-.9H579a5.03,5.03,0,0,0,7.608,0h2.457c1.062,8.131,2.923,22.372,2.963,22.6C591.784,246.34,588.386,247.564,582.756,247.564Zm10.232-8.055c-.434-3.331-1.1-8.473-2.141-16.4,4.616.191,7.26,1.858,7.26,8.56A8.436,8.436,0,0,1,592.988,239.509Z" transform="translate(-105.463 3197.709)" fill="#fff"/>
    <path id="Path_28" data-name="Path 28" d="M571.657,236.637l-6.256-8.252a5.052,5.052,0,0,0,.507-.433,5.219,5.219,0,0,0,.435-.554l4.929,3.824a.881.881,0,1,0,1.081-1.392l-5.217-4.048a5.364,5.364,0,0,0-1.122-5.1l-.013-.017c-.034-.038-.058-.082-.093-.119-.02-.02-.046-.028-.066-.046a.9.9,0,0,0-.149-.1.791.791,0,0,0-.152-.067.833.833,0,0,0-.159-.034.8.8,0,0,0-.177,0,.633.633,0,0,0-.087,0c-5.494.976-6.607,6.647-6.652,6.888,0,.023,0,.044,0,.067a.894.894,0,0,0,0,.186.808.808,0,0,0,.028.156.861.861,0,0,0,.066.153.907.907,0,0,0,.094.148c.016.019.022.043.04.062a4.968,4.968,0,0,0,3.6,1.551h0a4.924,4.924,0,0,0,1.53-.268l6.419,8.466a.881.881,0,1,0,1.4-1.065Zm-9.355-8.9a3.184,3.184,0,0,1-1.985-.71,6.87,6.87,0,0,1,4.616-4.884,3.613,3.613,0,0,1-.295,4.585,3.224,3.224,0,0,1-2.334,1.009Z" transform="translate(-105.463 3197.709)" fill="#fff"/>
    <path id="Path_29" data-name="Path 29" d="M582.756,230.5c-1.175,0-3.506,5.628-3.506,6.468a3.506,3.506,0,0,0,7.012,0C586.262,236.125,583.932,230.5,582.756,230.5Zm0,8.211a1.744,1.744,0,0,1-1.743-1.743,13.973,13.973,0,0,1,1.745-3.916,13.782,13.782,0,0,1,1.741,3.916A1.744,1.744,0,0,1,582.756,238.708Z" transform="translate(-105.463 3197.709)" fill="#fff"/>
  </g>
</svg>
