<svg xmlns="http://www.w3.org/2000/svg" width="28.45" height="36.517" viewBox="0 0 28.45 36.517">
  <g id="Group_1045" data-name="Group 1045" transform="translate(-59 -3414)">
    <path id="Path_241" data-name="Path 241" d="M479.335,222.1c-8.71-8.016-14.2-5.015-14.356-4.91l-5.189,2.006a.76.76,0,0,0-.435.984c.274.709.274.709-.589,1.043l-1.142.442c-.864.334-.864.334-1.138-.376a.76.76,0,0,0-.984-.435l-2.8,1.081a2.511,2.511,0,0,0-1.39,3.307l1.387,3.585A2.635,2.635,0,0,0,456,230.445l2.8-1.08a.761.761,0,0,0,.436-.984c-.275-.71-.275-.71.589-1.044l1.142-.441c.855-.331.864-.332,1.131.359l9.129,24.453a1.882,1.882,0,0,0,1.542,1.343,3.7,3.7,0,0,0,1.776-.349l1.049-.42,1.058-.4c.763-.295,2.553-.987,1.784-2.975l-9.587-23.952a2.444,2.444,0,0,1,1.468-1.639c2.217-.857,6.16.779,7.493,1.482a.764.764,0,0,0,.6.048l.027-.01a.761.761,0,0,0,.419-.4l.661-1.476A.76.76,0,0,0,479.335,222.1ZM476.1,250.468l-1.058.4-1.048.42a2.91,2.91,0,0,1-1.038.258c-.057-.007-.174-.021-.31-.373l-8.86-23.733,3.82-1.476,9.411,23.51C477.172,249.877,477.231,250.03,476.1,250.468Zm1.689-27.364c-1.588-.725-5.4-2.217-8.024-1.2a3.949,3.949,0,0,0-2.34,2.475l-4.258,1.646c-.846-1.281-2.058-.815-2.752-.546l-1.142.441c-.7.27-1.918.742-1.667,2.276l-2.152.832a1.118,1.118,0,0,1-1.328-.751l-1.387-3.586a1,1,0,0,1,.52-1.339l2.152-.832c.847,1.3,2.067.831,2.765.562l1.142-.442c.7-.269,1.918-.741,1.666-2.277l4.687-1.82a2,2,0,0,1,.27-.122c1.159-.448,5.393-1.421,11.963,4.429Z" transform="translate(-392.131 3197.45)" fill="current"/>
  </g>
</svg>
