<svg id="Group_17" data-name="Group 17" xmlns="http://www.w3.org/2000/svg" width="28.246" height="25.476" viewBox="0 0 28.246 25.476">
  <path id="Path_51" data-name="Path 51" d="M940.2,667.6h-7.365l-4.263-3.615a1.726,1.726,0,0,0,.179-.761,2.1,2.1,0,0,0-4.172,0,1.726,1.726,0,0,0,.251.88l-4.334,3.5h-7.366a.563.563,0,0,0-.588.534v18.14a.562.562,0,0,0,.588.534H940.2a.563.563,0,0,0,.589-.534v-18.14A.563.563,0,0,0,940.2,667.6Zm-13.534-5.2a.829.829,0,1,1-.909.825A.871.871,0,0,1,926.669,662.4Zm-1.011,2.469a2.22,2.22,0,0,0,2.158-.067l3.3,2.8h-8.844Zm13.956,3.8V670.8H913.724v-2.134Zm-25.892,17.072V671.865h25.891v13.872Z" transform="translate(-912.546 -661.329)" fill="current"/>
  <path id="Path_52" data-name="Path 52" d="M920.218,690.569h-1.1a.536.536,0,1,0,0,1.066h1.1a.536.536,0,1,0,0-1.067Z" transform="translate(-913.755 -669.415)" fill="current"/>
  <path id="Path_53" data-name="Path 53" d="M924.7,690.569h-1.1a.536.536,0,1,0,0,1.067h1.1a.536.536,0,1,0,0-1.067Z" transform="translate(-914.662 -669.415)" fill="current"/>
  <path id="Path_54" data-name="Path 54" d="M929.034,690.569h-1.1a.536.536,0,1,0,0,1.067h1.1a.536.536,0,1,0,0-1.067Z" transform="translate(-915.537 -669.415)" fill="current"/>
  <path id="Path_55" data-name="Path 55" d="M933.46,690.569h-1.1a.536.536,0,1,0,0,1.067h1.1a.536.536,0,1,0,0-1.067Z" transform="translate(-916.431 -669.415)" fill="current"/>
  <path id="Path_56" data-name="Path 56" d="M920.218,687.618h-1.1a.536.536,0,1,0,0,1.067h1.1a.536.536,0,1,0,0-1.067Z" transform="translate(-913.755 -668.599)" fill="current"/>
  <path id="Path_57" data-name="Path 57" d="M924.705,687.618h-1.1a.536.536,0,1,0,0,1.067h1.1a.536.536,0,1,0,0-1.067Z" transform="translate(-914.662 -668.599)" fill="current"/>
  <path id="Path_58" data-name="Path 58" d="M929.034,687.618h-1.1a.536.536,0,1,0,0,1.067h1.1a.536.536,0,1,0,0-1.067Z" transform="translate(-915.537 -668.599)" fill="current"/>
  <path id="Path_59" data-name="Path 59" d="M933.46,687.618h-1.1a.536.536,0,1,0,0,1.067h1.1a.536.536,0,1,0,0-1.067Z" transform="translate(-916.431 -668.599)" fill="current"/>
  <path id="Path_60" data-name="Path 60" d="M937.885,687.619h-1.1a.536.536,0,1,0,0,1.066h1.1a.536.536,0,1,0,0-1.067Z" transform="translate(-917.325 -668.6)" fill="current"/>
  <path id="Path_61" data-name="Path 61" d="M942.31,687.619h-1.1a.536.536,0,1,0,0,1.067h1.1a.536.536,0,1,0,0-1.067Z" transform="translate(-918.22 -668.6)" fill="current"/>
  <path id="Path_62" data-name="Path 62" d="M920.218,684.668h-1.1a.536.536,0,1,0,0,1.067h1.1a.536.536,0,1,0,0-1.067Z" transform="translate(-913.755 -667.784)" fill="current"/>
  <path id="Path_63" data-name="Path 63" d="M924.705,684.668h-1.1a.536.536,0,1,0,0,1.067h1.1a.536.536,0,1,0,0-1.067Z" transform="translate(-914.662 -667.784)" fill="current"/>
  <path id="Path_64" data-name="Path 64" d="M929.035,684.668h-1.1a.536.536,0,1,0,0,1.067h1.1a.536.536,0,1,0,0-1.067Z" transform="translate(-915.537 -667.784)" fill="current"/>
  <path id="Path_65" data-name="Path 65" d="M933.46,684.669h-1.1a.536.536,0,1,0,0,1.067h1.1a.536.536,0,1,0,0-1.066Z" transform="translate(-916.431 -667.784)" fill="current"/>
  <path id="Path_66" data-name="Path 66" d="M937.885,684.669h-1.1a.536.536,0,1,0,0,1.067h1.1a.536.536,0,1,0,0-1.067Z" transform="translate(-917.325 -667.784)" fill="current"/>
  <path id="Path_67" data-name="Path 67" d="M942.31,684.669h-1.1a.536.536,0,1,0,0,1.067h1.1a.536.536,0,1,0,0-1.067Z" transform="translate(-918.22 -667.784)" fill="current"/>
  <path id="Path_68" data-name="Path 68" d="M920.218,681.717h-1.1a.536.536,0,1,0,0,1.067h1.1a.536.536,0,1,0,0-1.067Z" transform="translate(-913.755 -666.967)" fill="current"/>
  <path id="Path_69" data-name="Path 69" d="M924.705,681.718h-1.1a.536.536,0,1,0,0,1.066h1.1a.536.536,0,1,0,0-1.067Z" transform="translate(-914.662 -666.968)" fill="current"/>
  <path id="Path_70" data-name="Path 70" d="M929.035,681.718h-1.1a.536.536,0,1,0,0,1.067h1.1a.536.536,0,1,0,0-1.067Z" transform="translate(-915.537 -666.968)" fill="current"/>
  <path id="Path_71" data-name="Path 71" d="M933.46,681.718h-1.1a.536.536,0,1,0,0,1.067h1.1a.536.536,0,1,0,0-1.067Z" transform="translate(-916.431 -666.968)" fill="current"/>
  <path id="Path_72" data-name="Path 72" d="M937.886,681.718h-1.1a.536.536,0,1,0,0,1.067h1.1a.536.536,0,1,0,0-1.067Z" transform="translate(-917.325 -666.968)" fill="current"/>
  <path id="Path_73" data-name="Path 73" d="M942.31,681.718h-1.1a.536.536,0,1,0,0,1.067h1.1a.536.536,0,1,0,0-1.067Z" transform="translate(-918.22 -666.968)" fill="current"/>
  <path id="Path_74" data-name="Path 74" d="M933.46,678.768h-1.1a.536.536,0,1,0,0,1.067h1.1a.536.536,0,1,0,0-1.067Z" transform="translate(-916.431 -666.152)" fill="current"/>
  <path id="Path_75" data-name="Path 75" d="M937.886,678.768h-1.1a.536.536,0,1,0,0,1.067h1.1a.536.536,0,1,0,0-1.067Z" transform="translate(-917.325 -666.152)" fill="current"/>
  <path id="Path_76" data-name="Path 76" d="M942.311,678.768h-1.1a.536.536,0,1,0,0,1.067h1.1a.536.536,0,1,0,0-1.067Z" transform="translate(-918.22 -666.152)" fill="current"/>
</svg>
