<svg xmlns="http://www.w3.org/2000/svg" xmlns:xlink="http://www.w3.org/1999/xlink" width="29.66" height="29.66" viewBox="0 0 29.66 29.66">
  <defs>
    <clipPath id="clipPath">
      <rect id="Rectangle_857" data-name="Rectangle 857" width="29.66" height="29.66" fill="none"/>
    </clipPath>
  </defs>
  <g id="Group_1319" data-name="Group 1319" transform="translate(0 0)">
    <g id="Group_518" data-name="Group 518" transform="translate(0 0)" clipPath="url(#clipPath)">
      <path id="Path_231" data-name="Path 231" d="M14.83,1.111A13.719,13.719,0,1,1,1.111,14.83,13.734,13.734,0,0,1,14.83,1.111M14.83,0A14.83,14.83,0,1,0,29.66,14.83,14.83,14.83,0,0,0,14.83,0" transform="translate(0 0)" fill="#b03b4b"/>
      <path id="Path_232" data-name="Path 232" d="M17.521,7.477h0a1.07,1.07,0,0,1,.147.009,1.179,1.179,0,0,1-.141,2.348,1.224,1.224,0,0,1-.147-.009,1.179,1.179,0,0,1,.141-2.348m0-1.111a2.29,2.29,0,0,0-.277,4.562,2.254,2.254,0,0,0,.283.017A2.29,2.29,0,0,0,17.8,6.383a2.264,2.264,0,0,0-.283-.017" transform="translate(-2.211 -0.924)" fill="#b03b4b"/>
      <path id="Path_233" data-name="Path 233" d="M16.759,14.009a.9.9,0,0,1,.127.009,1.179,1.179,0,0,1,1.026,1.313l-.841,6.826a1.111,1.111,0,0,0,1.1,1.247,1.1,1.1,0,0,0,.379-.067l1.262-.456a.4.4,0,0,1,.138-.025.418.418,0,0,1,.145.81l-3.934,1.424c-.027.007-.059.014-.075.019l-.056.018a1.207,1.207,0,0,1-.4.073,1.006,1.006,0,0,1-.124-.008,1.18,1.18,0,0,1-1.026-1.314l.841-6.828a1.109,1.109,0,0,0-1.481-1.18l-1.231.445a.4.4,0,0,1-.138.024.417.417,0,0,1-.145-.81l3.935-1.424.075-.019.042-.013a1.184,1.184,0,0,1,.379-.065m0-1.111a2.313,2.313,0,0,0-.729.121.98.98,0,0,0-.1.024L11.95,14.485a1.529,1.529,0,0,0,1.041,2.875l1.231-.445-.842,6.828A2.3,2.3,0,0,0,15.373,26.3a2.061,2.061,0,0,0,.261.015,2.324,2.324,0,0,0,.766-.134c.031-.009.062-.012.093-.023l3.984-1.443a1.528,1.528,0,0,0-1.041-2.874l-1.262.456.841-6.826a2.3,2.3,0,0,0-1.993-2.553,2.09,2.09,0,0,0-.262-.016" transform="translate(-1.588 -1.872)" fill="#b03b4b"/>
    </g>
  </g>
</svg>
