<svg xmlns="http://www.w3.org/2000/svg" width="13.547" height="20.099" viewBox="0 0 13.547 20.099">
  <g id="Group_38" data-name="Group 38" transform="translate(0.25 0.25)">
    <path id="Path_49" data-name="Path 49" d="M691.117,521.747a6.532,6.532,0,0,0-6.524,6.524c0,3.459,5.924,12.5,6.176,12.888a.415.415,0,0,0,.693,0c.251-.383,6.177-9.429,6.178-12.888A6.531,6.531,0,0,0,691.117,521.747Zm0,18.42c-1.284-2.015-5.694-9.137-5.694-11.9a5.695,5.695,0,1,1,11.389,0C696.811,531.03,692.4,538.152,691.115,540.167Z" transform="translate(-684.593 -521.747)" fill="#b03b4b" stroke="#b03b4b" stroke-width="0.5"/>
    <path id="Path_50" data-name="Path 50" d="M694.148,527.238a2.524,2.524,0,1,0,2.523,2.525A2.527,2.527,0,0,0,694.148,527.238Zm0,4.218a1.695,1.695,0,1,1,1.694-1.694A1.7,1.7,0,0,1,694.148,531.456Z" transform="translate(-687.624 -524.114)" fill="#b03b4b" stroke="#b03b4b" stroke-width="0.5"/>
  </g>
</svg>
