<svg xmlns="http://www.w3.org/2000/svg" width="49.115" height="32.717" viewBox="0 0 49.115 32.717">
  <g id="Group_1254" data-name="Group 1254" transform="translate(-978.308 -703.94)">
    <g id="Path_254" data-name="Path 254" fill="current" stroke-miterlimit="10">
      <path d="M 1016.893981933594 730.7369995117188 C 1016.687133789063 730.7369995117188 1016.492370605469 730.6561889648438 1016.345642089844 730.5093994140625 C 1016.043273925781 730.20703125 1016.043273925781 729.7149658203125 1016.345642089844 729.41259765625 L 1024.684204101563 721.0750122070313 L 993.197998046875 721.0750122070313 C 992.7706298828125 721.0750122070313 992.4229736328125 720.7268676757813 992.4229736328125 720.2990112304688 C 992.4229736328125 719.8716430664063 992.7706298828125 719.5239868164063 993.197998046875 719.5239868164063 L 1024.6181640625 719.5239868164063 L 1016.276611328125 711.1843872070313 C 1015.974243164063 710.8819580078125 1015.974243164063 710.3899536132813 1016.276611328125 710.087646484375 C 1016.423095703125 709.941162109375 1016.617858886719 709.8605346679688 1016.825012207031 709.8605346679688 C 1017.032165527344 709.8605346679688 1017.226928710938 709.941162109375 1017.373352050781 710.087646484375 L 1027.071411132813 719.7836303710938 C 1027.2177734375 719.9324340820313 1027.297973632813 720.1268920898438 1027.297973632813 720.3319702148438 C 1027.297973632813 720.5382690429688 1027.217651367188 720.73291015625 1027.07177734375 720.8800048828125 L 1017.4423828125 730.5093994140625 C 1017.295593261719 730.6561889648438 1017.100830078125 730.7369995117188 1016.893981933594 730.7369995117188 Z" stroke="none"/>
      <path d="M 1016.825012207031 709.9855346679688 C 1016.658508300781 709.9855346679688 1016.492004394531 710.0490112304688 1016.364990234375 710.176025390625 C 1016.111022949219 710.4299926757813 1016.111022949219 710.8419799804688 1016.364990234375 711.0960083007813 L 1024.920043945313 719.6489868164063 L 993.197998046875 719.6489868164063 C 992.8389892578125 719.6489868164063 992.5479736328125 719.9400024414063 992.5479736328125 720.2990112304688 C 992.5479736328125 720.6589965820313 992.8389892578125 720.9500122070313 993.197998046875 720.9500122070313 L 1024.985961914063 720.9500122070313 L 1016.434020996094 729.5009765625 C 1016.179992675781 729.7550048828125 1016.179992675781 730.1669921875 1016.434020996094 730.4210205078125 C 1016.560974121094 730.5479736328125 1016.72802734375 730.6119995117188 1016.893981933594 730.6119995117188 C 1017.059997558594 730.6119995117188 1017.226989746094 730.5479736328125 1017.35400390625 730.4210205078125 L 1026.983032226563 720.7919921875 C 1027.10400390625 720.6699829101563 1027.172973632813 720.5050048828125 1027.172973632813 720.3319702148438 C 1027.172973632813 720.1599731445313 1027.10400390625 719.9949951171875 1026.983032226563 719.8720092773438 L 1017.284973144531 710.176025390625 C 1017.157958984375 710.0490112304688 1016.991516113281 709.9855346679688 1016.825012207031 709.9855346679688 M 1016.825012207031 709.7355346679688 C 1017.065612792969 709.7355346679688 1017.291748046875 709.8291625976563 1017.461791992188 709.999267578125 L 1027.159790039063 719.6951904296875 C 1027.330078125 719.8682861328125 1027.422973632813 720.0938720703125 1027.422973632813 720.3319702148438 C 1027.422973632813 720.5714721679688 1027.329833984375 720.79736328125 1027.16064453125 720.968017578125 L 1017.53076171875 730.5977783203125 C 1017.3603515625 730.7681884765625 1017.134155273438 730.8619995117188 1016.893981933594 730.8619995117188 C 1016.653747558594 730.8619995117188 1016.427612304688 730.7681884765625 1016.257263183594 730.5977783203125 C 1016.087158203125 730.427734375 1015.993530273438 730.2015380859375 1015.993530273438 729.9609985351563 C 1015.993530273438 729.7203979492188 1016.087158203125 729.4942626953125 1016.257263183594 729.32421875 L 1024.38232421875 721.2000122070313 L 993.197998046875 721.2000122070313 C 992.7017822265625 721.2000122070313 992.2979736328125 720.7958374023438 992.2979736328125 720.2990112304688 C 992.2979736328125 719.802734375 992.7017822265625 719.3989868164063 993.197998046875 719.3989868164063 L 1024.31640625 719.3989868164063 L 1016.188232421875 711.2728271484375 C 1015.837097167969 710.921630859375 1015.837158203125 710.350341796875 1016.188232421875 709.999267578125 C 1016.358276367188 709.8291625976563 1016.584411621094 709.7355346679688 1016.825012207031 709.7355346679688 Z" stroke="none" fill="current"/>
    </g>
    <path id="Path_255" data-name="Path 255" d="M1009.091,725.058v7.316a2.348,2.348,0,0,1-2.349,2.349H982.591a2.349,2.349,0,0,1-2.349-2.349V708.223a2.349,2.349,0,0,1,2.349-2.349h24.151a2.349,2.349,0,0,1,2.349,2.349v7.317a.967.967,0,0,0,.967.967h0a.967.967,0,0,0,.967-.967v-7.317a4.283,4.283,0,0,0-4.283-4.283H982.591a4.284,4.284,0,0,0-4.283,4.283v24.151a4.283,4.283,0,0,0,4.283,4.283h24.151a4.282,4.282,0,0,0,4.283-4.283v-7.316a.967.967,0,0,0-.967-.967h0A.967.967,0,0,0,1009.091,725.058Z" fill="current"/>
  </g>
</svg>
