<svg xmlns="http://www.w3.org/2000/svg" xmlns:xlink="http://www.w3.org/1999/xlink" width="120" height="120" viewBox="0 0 120 120">
  <defs>
    <clipPath id="clip-Artboard_4">
      <rect width="120" height="120"/>
    </clipPath>
  </defs>
  <g id="Artboard_4" data-name="Artboard – 4" clip-path="url(#clip-Artboard_4)">
    <g id="Group_2454" data-name="Group 2454" transform="translate(-6.999 -9.998)">
      <path id="Path_254" data-name="Path 254" d="M1077.112,734.264,1053.3,710.453a1.6,1.6,0,1,0-2.259,2.259l21.009,21h-77.9a1.6,1.6,0,0,0,0,3.2h78.063l-21,21a1.6,1.6,0,1,0,2.259,2.259l23.646-23.646a1.6,1.6,0,0,0,0-2.259Z" transform="translate(-950.579 -665.141)" fill="#fff"/>
      <path id="Path_254_-_Outline" data-name="Path 254 - Outline" d="M1052.166,709.985a1.6,1.6,0,0,0-1.13,2.727l21.009,21h-77.9a1.6,1.6,0,0,0,0,3.2h78.063l-21,21a1.6,1.6,0,0,0,2.259,2.259l23.646-23.646a1.6,1.6,0,0,0,0-2.259L1053.3,710.453a1.592,1.592,0,0,0-1.13-.468m0-.5a2.084,2.084,0,0,1,1.483.614l23.816,23.811a2.1,2.1,0,0,1,0,2.965l-23.648,23.648a2.1,2.1,0,0,1-2.967-2.967L1071,737.412H994.144a2.1,2.1,0,0,1,0-4.2h76.694l-20.155-20.15a2.1,2.1,0,0,1,1.483-3.581Z" transform="translate(-950.579 -665.141)" fill="#fff"/>
      <path id="Path_255" data-name="Path 255" d="M1053.9,755.8v17.966a5.767,5.767,0,0,1-5.769,5.768H988.826a5.768,5.768,0,0,1-5.769-5.768V714.458a5.77,5.77,0,0,1,5.769-5.769h59.309a5.768,5.768,0,0,1,5.769,5.769v17.969a2.375,2.375,0,0,0,2.375,2.375h0a2.375,2.375,0,0,0,2.375-2.375V714.458a10.518,10.518,0,0,0-10.518-10.518H988.826a10.519,10.519,0,0,0-10.518,10.518v59.309a10.518,10.518,0,0,0,10.518,10.518h59.309a10.516,10.516,0,0,0,10.518-10.518V755.8a2.375,2.375,0,0,0-2.375-2.375h0A2.375,2.375,0,0,0,1053.9,755.8Z" transform="translate(-971.309 -673.941)" fill="#fff"/>
    </g>
  </g>
</svg>
