<svg xmlns="http://www.w3.org/2000/svg" width="43.227" height="29.67" viewBox="0 0 43.227 29.67">
  <g id="Group_1057" data-name="Group 1057" transform="translate(-552.839 -701.044)">
    <path id="Path_146" data-name="Path 146" d="M590.837,720.254a5.222,5.222,0,0,0-4.244,2.185h-1.762V720.1a3.554,3.554,0,0,0,2.3-3.315v-2.972a3.561,3.561,0,0,0-3.556-3.557H573.78a3.561,3.561,0,0,0-3.556,3.557v2.972a3.554,3.554,0,0,0,2.3,3.315v2.336h-3.082a5.2,5.2,0,0,0-5.88-1.919l-6.811-15.108a2.424,2.424,0,1,0-1.471.508,2.4,2.4,0,0,0,.476-.049l6.808,15.1a5.224,5.224,0,1,0,6.878,7.554h17.155a5.226,5.226,0,1,0,4.244-8.274Zm-36.9-16.772a1.341,1.341,0,1,1,1.341,1.342A1.342,1.342,0,0,1,553.935,703.482Zm17.385,13.306v-2.972a2.463,2.463,0,0,1,2.46-2.46h9.792a2.463,2.463,0,0,1,2.46,2.46v2.972a2.464,2.464,0,0,1-2.46,2.46H573.78A2.464,2.464,0,0,1,571.32,716.789Zm2.3,3.557h10.117v2.094H573.618Zm-8.422,9.272a4.133,4.133,0,1,1,3.421-6.448l.013.02a4.259,4.259,0,0,1,.347.64c.028.063.046.129.072.193a4.161,4.161,0,0,1,.158.51c.018.073.034.147.047.221a3.643,3.643,0,0,1,0,1.463c-.013.074-.029.148-.047.221a4.15,4.15,0,0,1-.159.512c-.024.063-.043.128-.07.19a4.17,4.17,0,0,1-.351.645l-.009.015A4.133,4.133,0,0,1,565.2,729.617Zm20.791-2.185H570.046c.005-.013.009-.028.014-.042.054-.137.1-.275.146-.416.01-.033.017-.067.026-.1.035-.125.068-.25.094-.379.013-.065.019-.131.03-.2.016-.1.034-.2.044-.3.017-.17.026-.341.026-.513s-.009-.342-.026-.512c-.01-.1-.028-.2-.043-.3-.011-.067-.018-.133-.03-.2-.025-.126-.058-.25-.093-.374-.009-.035-.017-.072-.027-.107-.041-.137-.089-.27-.141-.4-.007-.018-.012-.038-.019-.056h15.941c-.008.018-.013.038-.02.056-.051.131-.1.265-.14.4-.011.035-.018.072-.028.107-.034.124-.067.248-.092.374-.013.067-.02.133-.03.2-.015.1-.034.2-.044.3q-.025.255-.025.512t.025.513c.01.1.029.2.044.3.01.066.018.132.03.2.025.129.059.255.094.379.009.034.016.068.026.1.042.142.092.28.145.416C585.978,727.4,585.981,727.418,585.987,727.432Zm4.85,2.185a4.132,4.132,0,0,1-3.423-1.819l-.009-.015a4.03,4.03,0,0,1-.351-.645c-.028-.062-.046-.126-.07-.19a3.886,3.886,0,0,1-.159-.512c-.018-.073-.035-.147-.048-.221a3.643,3.643,0,0,1,0-1.463c.013-.074.03-.147.048-.221a4.018,4.018,0,0,1,.158-.51c.024-.064.044-.13.071-.193a4.183,4.183,0,0,1,.348-.64l.013-.02a4.132,4.132,0,1,1,3.421,6.448Z" fill="#b03b4b"/>
    <path id="Path_147" data-name="Path 147" d="M567.039,732.054a2.474,2.474,0,1,1,2.473-2.474A2.477,2.477,0,0,1,567.039,732.054Zm0-3.851a1.377,1.377,0,1,0,1.377,1.377A1.379,1.379,0,0,0,567.039,728.2Z" transform="translate(-1.843 -4.097)" fill="#b03b4b"/>
    <path id="Path_148" data-name="Path 148" d="M597.606,732.168a2.474,2.474,0,1,1,2.474-2.474A2.477,2.477,0,0,1,597.606,732.168Zm0-3.852a1.378,1.378,0,1,0,1.378,1.378A1.38,1.38,0,0,0,597.606,728.316Z" transform="translate(-6.648 -4.114)" fill="#b03b4b"/>
    <path id="Path_149" data-name="Path 149" d="M576.846,717.851l-.548-.011c0-1.477,0-2.22.46-2.711.474-.507,1.178-.5,2.586-.507h.089v1.1h-.089a4.324,4.324,0,0,0-1.785.16,5.093,5.093,0,0,0-.164,1.963Z" transform="translate(-3.687 -2.134)" fill="#b03b4b"/>
  </g>
</svg>
