<svg xmlns="http://www.w3.org/2000/svg" width="29.795" height="29.752" viewBox="0 0 29.795 29.752">
  <g id="Group_34" data-name="Group 34" transform="translate(0 0)">
    <path id="Path_36" data-name="Path 36" d="M809.767,400.369h8.566a.621.621,0,0,0,0-1.242h-8.566a.621.621,0,0,0,0,1.242Z" transform="translate(-799.159 -374.333)" fill="#b03b4b"/>
    <path id="Path_37" data-name="Path 37" d="M809.767,397.162h8.566a.621.621,0,0,0,0-1.242h-8.566a.621.621,0,0,0,0,1.242Z" transform="translate(-799.159 -373.61)" fill="#b03b4b"/>
    <path id="Path_38" data-name="Path 38" d="M822.957,370.809h-4.663l0-.005-2.7-3.316a1.247,1.247,0,0,0-.88-.362h-9.728a1.258,1.258,0,0,0-1.255,1.258v2.425h-4.372a3.119,3.119,0,0,0-3.1,3.134v8.585a3.118,3.118,0,0,0,3.1,3.135h23.606a3.117,3.117,0,0,0,3.094-3.135v-8.585A3.118,3.118,0,0,0,822.957,370.809Zm-8.287-2.487,2.706,3.325v4.169H804.967l.012-7.448Zm10.139,14.206a1.875,1.875,0,0,1-1.852,1.893H799.351a1.875,1.875,0,0,1-1.853-1.893v-8.585a1.874,1.874,0,0,1,1.853-1.891h4.372v4.385a.621.621,0,0,0,.621.621H818a.621.621,0,0,0,.621-.621v-4.385h4.338a1.873,1.873,0,0,1,1.852,1.891Z" transform="translate(-796.256 -367.126)" fill="#b03b4b"/>
    <path id="Path_39" data-name="Path 39" d="M820.168,392.858a.621.621,0,0,0-.621.621l.022,7.951-12.432-.016v-7.935a.621.621,0,1,0-1.243,0v7.935a1.241,1.241,0,0,0,1.221,1.258h12.453a1.241,1.241,0,0,0,1.221-1.258v-7.935A.621.621,0,0,0,820.168,392.858Z" transform="translate(-798.427 -372.921)" fill="#b03b4b"/>
    <path id="Path_40" data-name="Path 40" d="M828.474,384.876a.651.651,0,0,0-.174.448.579.579,0,0,0,.187.434.621.621,0,0,0,1.056-.434.643.643,0,0,0-.186-.448A.652.652,0,0,0,828.474,384.876Z" transform="translate(-803.472 -371.085)" fill="#b03b4b"/>
  </g>
</svg>
