<svg xmlns="http://www.w3.org/2000/svg" width="24.235" height="29.752" viewBox="0 0 24.235 29.752">
  <g id="Group_32" data-name="Group 32" transform="translate(0 0)">
    <g id="Group_11" data-name="Group 11" transform="translate(0 0)">
      <path id="Path_34" data-name="Path 34" d="M698.515,216.8l-.6-1.3a1.616,1.616,0,0,0-1.966-.874l-16.358,7.529a1.52,1.52,0,0,0-.525,2.021l.541,1.177-.524.241a.577.577,0,1,0,.483,1.047l.524-.241.568,1.234a1.417,1.417,0,0,0,1.826.8l16.357-7.529a1.5,1.5,0,0,0,.666-1.951l-.5-1.091a2.1,2.1,0,0,1,2.3,1.242l.327.711a2.112,2.112,0,0,1-.85,2.722l-6.551,4.2a3.266,3.266,0,0,0-1.274,4.171l1.271,2.76a.576.576,0,0,0,1.047-.482L694,230.43a2.11,2.11,0,0,1,.851-2.719l6.551-4.2a3.267,3.267,0,0,0,1.273-4.172l-.327-.711A3.27,3.27,0,0,0,698.515,216.8Zm-.051,2.645a.378.378,0,0,1-.1.422l-16.357,7.528c-.045.021-.212-.053-.3-.238l-1.591-3.457a.74.74,0,0,1-.039-.492l16.345-7.524a.608.608,0,0,1,.45.305Z" transform="translate(-678.752 -214.525)" fill="#b03b4b"/>
      <path id="Path_35" data-name="Path 35" d="M702.508,241.608l-3.142,1.446a.576.576,0,0,0-.282.764l3.374,7.329a.576.576,0,0,0,.764.282l3.142-1.446a.575.575,0,0,0,.282-.764l-3.374-7.329A.576.576,0,0,0,702.508,241.608Zm2.851,7.57-2.095.964-2.892-6.282,2.095-.964Z" transform="translate(-684.158 -221.731)" fill="#b03b4b"/>
    </g>
  </g>
</svg>
