<svg xmlns="http://www.w3.org/2000/svg" xmlns:xlink="http://www.w3.org/1999/xlink" width="120" height="120" viewBox="0 0 120 120">
  <defs>
    <clipPath id="clip-drop_down_icons_4">
      <rect width="120" height="120"/>
    </clipPath>
  </defs>
  <g id="drop_down_icons_4" data-name="drop down icons 4" clip-path="url(#clip-drop_down_icons_4)">
    <path id="Path_263" data-name="Path 263" d="M1027.443,558.883,993.46,524.9a5.7,5.7,0,0,0-8.676,1.155,24.821,24.821,0,0,0-2.155,18.491l-20.385,20.381c-14.33-6.52-30.458-4.638-39.918,4.812a5.515,5.515,0,0,0,0,7.794L946.793,602,909.8,638.952a2.54,2.54,0,0,0,3.591,3.595L950.388,605.6l24.427,24.427a5.492,5.492,0,0,0,3.9,1.613h0a5.474,5.474,0,0,0,3.891-1.613c9.715-9.715,11.528-25.223,4.8-39.923l20.385-20.381c6.521,1.586,13.337.8,18.5-2.16a5.514,5.514,0,0,0,1.151-8.679Zm-3.684,4.272c-4.35,2.5-10.338,2.983-15.989,1.293a2.561,2.561,0,0,0-2.525.639l-22.7,22.7a2.539,2.539,0,0,0-.473,2.941c6.647,13.183,5.446,27.2-3.057,35.7a.421.421,0,0,1-.3.127l-52.8-52.613v-.612a26.143,26.143,0,0,1,18.729-7.3,38.137,38.137,0,0,1,16.979,4.242,2.542,2.542,0,0,0,2.937-.478l22.7-22.694a2.547,2.547,0,0,0,.636-2.529c-1.744-5.827-1.286-11.5,1.293-15.985l.677-.088,33.984,33.98,1.794-1.8Z" transform="translate(-909.059 -523.396)" fill="#33384f"/>
  </g>
</svg>
