<svg xmlns="http://www.w3.org/2000/svg" width="26.705" height="24.027" viewBox="0 0 26.705 24.027">
  <g id="Group_2" data-name="Group 2" transform="translate(6.202) rotate(21)">
    <g id="Group_1" data-name="Group 1" transform="translate(0 0)">
      <path id="Path_1" data-name="Path 1" d="M21.293,14.654l-6.2-3.929a7.841,7.841,0,1,0-1.539,2.429l6.2,3.929a1.438,1.438,0,1,0,1.538-2.429ZM1.019,9.354a6.978,6.978,0,1,1,8.336,5.28A6.986,6.986,0,0,1,1.019,9.354Zm20,6.83a.592.592,0,0,1-.813.183L14.1,12.5a7.842,7.842,0,0,0,.631-1l6.112,3.871a.589.589,0,0,1,.183.813Z" fill="#fff"/>
    </g>
  </g>
</svg>
