<svg xmlns="http://www.w3.org/2000/svg" width="22.55" height="22.579" viewBox="0 0 22.55 22.579">
  <path id="Path_243" data-name="Path 243" d="M1047.076,229.772a.484.484,0,0,0,.027-.186,11.27,11.27,0,0,0-11.2-12.618,11.453,11.453,0,0,0-1.44.1.432.432,0,0,0-.056.008,11.221,11.221,0,0,0-9.673,9.664.468.468,0,0,0-.028.2,11.227,11.227,0,0,0,12.531,12.523h.021a.466.466,0,0,0,.123-.022,11.226,11.226,0,0,0,9.693-9.668Zm-.887-.613a10.24,10.24,0,0,1-7.856-2.648l5.2-5.2a10.243,10.243,0,0,1,2.7,6.944C1046.233,228.561,1046.214,228.861,1046.189,229.16Zm-3.338-8.528-5.2,5.2a10.237,10.237,0,0,1-2.649-7.856c.3-.026.6-.044.9-.044A10.244,10.244,0,0,1,1042.851,220.632Zm-14.247.323a10.253,10.253,0,0,1,5.427-2.849,11.183,11.183,0,0,0,2.941,8.4l-2.811,2.811a11.193,11.193,0,0,0-8.4-2.939A10.267,10.267,0,0,1,1028.6,220.955Zm-2.976,6.4A10.225,10.225,0,0,1,1033.48,230l-5.2,5.2A10.308,10.308,0,0,1,1025.628,227.354Zm3.333,8.529,5.2-5.2a10.236,10.236,0,0,1,2.648,7.856c-.3.026-.6.044-.9.044A10.245,10.245,0,0,1,1028.961,235.883Zm8.82,2.526a11.182,11.182,0,0,0-2.94-8.406l2.808-2.808a11.187,11.187,0,0,0,7.6,2.985c.266,0,.536-.032.8-.051a10.305,10.305,0,0,1-8.277,8.28Z" transform="translate(-1024.631 -216.968)" fill="#b03b4b"/>
</svg>
