<svg xmlns="http://www.w3.org/2000/svg" xmlns:xlink="http://www.w3.org/1999/xlink" width="120" height="120" viewBox="0 0 120 120">
  <defs>
    <clipPath id="clip-drop_down_icons_1">
      <rect width="120" height="120"/>
    </clipPath>
  </defs>
  <g id="drop_down_icons_1" data-name="drop down icons 1" clipPath="url(#clip-drop_down_icons_1)">
    <g id="Group_2436" data-name="Group 2436" transform="translate(-787.138 -414.065)">
      <path id="Path_164" data-name="Path 164" d="M802.158,446.286a2.8,2.8,0,0,1,2.8,2.8v3.134a2.8,2.8,0,0,1-2.8,2.8h-3.134a2.8,2.8,0,0,1-2.8-2.8v-3.134a2.8,2.8,0,0,1,2.8-2.8h3.134m0-4.483h-3.134a7.284,7.284,0,0,0-7.282,7.282v3.134a7.281,7.281,0,0,0,7.282,7.282h3.134a7.28,7.28,0,0,0,7.282-7.282v-3.134a7.282,7.282,0,0,0-7.282-7.282Z" transform="translate(11.271 50.766)" fill="#33384f"/>
      <path id="Path_165" data-name="Path 165" d="M802.382,425.548a1.763,1.763,0,0,1,1.741,1.738v20.526a1.74,1.74,0,1,1-3.479,0V427.286a1.762,1.762,0,0,1,1.738-1.738m0-4.482a6.239,6.239,0,0,0-6.22,6.22v20.526a6.222,6.222,0,1,0,12.444,0V427.286a6.24,6.24,0,0,0-6.224-6.22Z" transform="translate(22.091 0)" fill="#33384f"/>
      <path id="Path_166" data-name="Path 166" d="M815.505,425.548a1.762,1.762,0,0,1,1.738,1.738v20.526a1.74,1.74,0,1,1-3.479,0V427.286a1.763,1.763,0,0,1,1.741-1.738m0-4.482a6.24,6.24,0,0,0-6.223,6.22v20.526a6.222,6.222,0,1,0,12.444,0V427.286a6.24,6.24,0,0,0-6.22-6.22Z" transform="translate(54.208 0)" fill="#33384f"/>
      <g id="Group_133" data-name="Group 133" transform="translate(787.138 437.55)">
        <path id="Path_167" data-name="Path 167" d="M885.092,425.847h-4.134v4.483h4.134A17.584,17.584,0,0,1,902.656,447.9v45.548a17.586,17.586,0,0,1-17.564,17.567h-75.9a17.589,17.589,0,0,1-17.568-17.567V447.9a17.587,17.587,0,0,1,17.568-17.567h4.131v-4.483h-4.131a22.114,22.114,0,0,0-22.05,22.05v45.548a22.116,22.116,0,0,0,22.05,22.05h75.9a22.113,22.113,0,0,0,22.046-22.05V447.9A22.111,22.111,0,0,0,885.092,425.847Z" transform="translate(-787.138 -425.846)" fill="#33384f"/>
        <rect id="Rectangle_57" data-name="Rectangle 57" width="22.838" height="4.482" transform="translate(48.582)" fill="#33384f"/>
      </g>
    </g>
  </g>
</svg>
