<svg id="Group_3" data-name="Group 3" xmlns="http://www.w3.org/2000/svg" width="55.447" height="47.818" viewBox="0 0 55.447 47.818">
  <path id="Path_3" data-name="Path 3" d="M483.762,671.838h-27.34a8.362,8.362,0,0,0-8.384,8.114V691.42a8.377,8.377,0,0,0,8.384,8.141h.858v5.655a2.686,2.686,0,0,0,4.567,2.112l8.164-7.767h13.751a8.166,8.166,0,0,0,8.171-8.141V679.952A8.151,8.151,0,0,0,483.762,671.838Zm5.86,19.582a5.852,5.852,0,0,1-5.86,5.831H469.549a1.149,1.149,0,0,0-.8.318l-8.486,8.072c-.192.182-.676.167-.677-.425v-6.809a1.155,1.155,0,0,0-1.156-1.156h-2.013a6.037,6.037,0,0,1-6.073-5.831V679.952a6.024,6.024,0,0,1,6.073-5.8h27.34a5.838,5.838,0,0,1,5.86,5.8Z" transform="translate(-448.038 -660.287)" fill="#302e47"/>
  <path id="Path_4" data-name="Path 4" d="M487.98,665.2H465.219a7.935,7.935,0,0,0-7.859,7.474,1.154,1.154,0,1,0,2.3.216,5.6,5.6,0,0,1,5.561-5.38H487.98a6.288,6.288,0,0,1,6.291,5.95v8.949a6.1,6.1,0,0,1-5.445,5.908,1.155,1.155,0,0,0,.129,2.3c.042,0,.087,0,.13-.007a8.439,8.439,0,0,0,7.5-8.2v-8.949A8.549,8.549,0,0,0,487.98,665.2Z" transform="translate(-441.134 -665.204)" fill="#302e47"/>
  <path id="Path_5" data-name="Path 5" d="M477.427,681.127h-22.9a1.154,1.154,0,0,0,0,2.309h22.9a1.154,1.154,0,0,0,0-2.309Z" transform="translate(-444.087 -653.403)" fill="#302e47"/>
  <path id="Path_6" data-name="Path 6" d="M477.427,677.146h-22.9a1.155,1.155,0,0,0,0,2.31h22.9a1.155,1.155,0,0,0,0-2.31Z" transform="translate(-444.087 -656.354)" fill="#302e47"/>
</svg>
