<svg xmlns="http://www.w3.org/2000/svg" width="37.219" height="42.133" viewBox="0 0 37.219 42.133">
  <g id="Group_1178" data-name="Group 1178" transform="translate(-280.085 -754.071)">
    <g id="Ellipse_4" data-name="Ellipse 4" transform="translate(287.584 754.071)" fill="none" stroke="#fff" stroke-miterlimit="10" stroke-width="2.5">
      <ellipse cx="11.11" cy="11.11" rx="11.11" ry="11.11" stroke="none"/>
      <ellipse cx="11.11" cy="11.11" rx="9.86" ry="9.86" fill="none"/>
    </g>
    <g id="Path_125" data-name="Path 125" transform="translate(-258.4 55.256)" fill="none" stroke-miterlimit="10">
      <path d="M573.157,725.518a22.5,22.5,0,0,0-7.784-5.2,13.66,13.66,0,0,1-16.554,0,22.479,22.479,0,0,0-7.784,5.2c-5.6,5.744-1.345,15.43,6.674,15.43h18.774C574.5,740.948,578.754,731.262,573.157,725.518Z" stroke="none"/>
      <path d="M 548.5443725585938 723.1650390625 C 546.4105224609375 724.178466796875 544.4907836914063 725.5531616210938 542.8244018554688 727.2630615234375 C 541.862548828125 728.2498779296875 541.2703857421875 729.4039916992188 541.0642700195313 730.6932983398438 C 540.8724365234375 731.8935546875 541.031982421875 733.146728515625 541.5255737304688 734.3171997070313 C 542.3678588867188 736.3143310546875 544.4343872070313 738.4483642578125 547.7084350585938 738.4483642578125 L 566.4824829101563 738.4483642578125 C 569.7560424804688 738.4483642578125 571.8223876953125 736.3147583007813 572.6646728515625 734.3179931640625 C 573.158447265625 733.1473999023438 573.318115234375 731.8941040039063 573.1263427734375 730.6935424804688 C 572.9203491210938 729.404052734375 572.3283081054688 728.249755859375 571.367431640625 727.2637329101563 C 569.69873046875 725.5529174804688 567.7789306640625 724.1781005859375 565.646484375 723.1651000976563 C 563.0758056640625 724.771240234375 560.1478881835938 725.6134643554688 557.0946044921875 725.6134643554688 C 554.04248046875 725.6134643554688 551.114990234375 724.7711791992188 548.5443725585938 723.1650390625 M 548.8182373046875 720.3201293945313 C 551.1209106445313 722.0654907226563 553.9830322265625 723.1134643554688 557.0946044921875 723.1134643554688 C 560.2080078125 723.1134643554688 563.0701904296875 722.0654907226563 565.3726806640625 720.3201293945313 C 568.3285522460938 721.4961547851563 570.9742431640625 723.2801513671875 573.1571044921875 725.5181274414063 C 578.75439453125 731.2623291015625 574.5025024414063 740.9483642578125 566.4824829101563 740.9483642578125 L 547.7084350585938 740.9483642578125 C 539.688720703125 740.9483642578125 535.435302734375 731.2623291015625 541.0341186523438 725.5181274414063 C 543.2151489257813 723.2801513671875 545.8621826171875 721.4961547851563 548.8182373046875 720.3201293945313 Z" stroke="none" fill="#fff"/>
    </g>
  </g>
</svg>
