<svg xmlns="http://www.w3.org/2000/svg" width="34.547" height="31.324" viewBox="0 0 34.547 31.324">
  <path id="Path_138" data-name="Path 138" d="M485.331,534.041c0-8.636-7.749-15.662-17.274-15.662s-17.273,7.026-17.273,15.662,7.748,15.662,17.273,15.662a18.227,18.227,0,0,0,11.387-3.915.6.6,0,0,0,.067-.055A15.03,15.03,0,0,0,485.331,534.041Zm-33.088,0c0-7.906,7.094-14.338,15.814-14.338s15.814,6.432,15.814,14.338a13.7,13.7,0,0,1-4.967,10.406c-5.359-2.056-6.349-3.024-6.518-3.254v-.911a8.793,8.793,0,0,0,2.067-3.452,2.742,2.742,0,0,0,1.055-1.743,2.571,2.571,0,0,0-.506-1.956v-2.724c0-3.673-2.5-5.779-6.862-5.779-4.3,0-6.864,2.161-6.864,5.779v2.726a2.566,2.566,0,0,0-.5,1.952,2.735,2.735,0,0,0,1.05,1.744,8.807,8.807,0,0,0,2.071,3.454v.921c-.177.275-1.171,1.21-6.638,3.28A13.711,13.711,0,0,1,452.243,534.041Zm6.261,11.4c5.528-2.142,6.564-3.179,6.814-3.908a.6.6,0,0,0,.033-.2v-1.315a.627.627,0,0,0-.208-.463,7.464,7.464,0,0,1-1.983-3.3.674.674,0,0,0-.283-.363,1.445,1.445,0,0,1-.661-.994,1.377,1.377,0,0,1,.355-1.135.627.627,0,0,0,.164-.418v-2.944c0-2.873,1.919-4.456,5.4-4.456,3.534,0,5.4,1.541,5.4,4.456v2.943a.628.628,0,0,0,.164.418,1.369,1.369,0,0,1,.355,1.136,1.442,1.442,0,0,1-.661.993.666.666,0,0,0-.284.363,7.468,7.468,0,0,1-1.982,3.3.627.627,0,0,0-.208.463v1.315a.6.6,0,0,0,.033.2c.15.439.5,1.438,6.7,3.873a17,17,0,0,1-19.157.035Z" transform="translate(-450.784 -518.379)" fill="current"/>
</svg>
