<svg xmlns="http://www.w3.org/2000/svg" xmlns:xlink="http://www.w3.org/1999/xlink" width="120" height="120" viewBox="0 0 120 120">
  <defs>
    <clipPath id="clip-drop_down_icons_3">
      <rect width="120" height="120"/>
    </clipPath>
  </defs>
  <g id="drop_down_icons_3" data-name="drop down icons 3" clip-path="url(#clip-drop_down_icons_3)">
    <g id="Group_20" data-name="Group 20" transform="translate(0 3)">
      <path id="Path_80" data-name="Path 80" d="M894.58,637.1h-30.8a2.514,2.514,0,0,1-2.516-2.511v-41.53H840.3v41.53a2.511,2.511,0,0,1-2.515,2.511h-30.8a6.487,6.487,0,0,1-6.435-6.521V582.965a13.216,13.216,0,0,1-2.587.284,6.287,6.287,0,0,1-5.12-2.124,9.058,9.058,0,0,1,1.024-12.552L845,524.279a8.9,8.9,0,0,1,10.952-.367,2.332,2.332,0,0,1,.606.367L907.7,568.574a9.057,9.057,0,0,1,1.024,12.552,6.287,6.287,0,0,1-5.119,2.124,12.943,12.943,0,0,1-2.587-.284v47.618A6.488,6.488,0,0,1,894.58,637.1Zm-28.286-5.027H894.58a1.453,1.453,0,0,0,1.412-1.494V579.563a2.511,2.511,0,0,1,1.137-2.1,2.542,2.542,0,0,1,2.385-.2,12.238,12.238,0,0,0,4.091.959,1.831,1.831,0,0,0,1.244-.3,3.993,3.993,0,0,0-.442-5.541l-50.747-43.958a2.3,2.3,0,0,1-.545-.339,3.758,3.758,0,0,0-4.824,0l-51.141,44.3a4,4,0,0,0-.442,5.541,1.843,1.843,0,0,0,1.248.3,12.277,12.277,0,0,0,4.094-.959,2.519,2.519,0,0,1,3.523,2.3v51.021a1.452,1.452,0,0,0,1.4,1.494h28.293V590.548a2.512,2.512,0,0,1,2.511-2.515h26a2.512,2.512,0,0,1,2.515,2.515Z" transform="translate(-790.781 -522.205)" fill="#302e47"/>
    </g>
  </g>
</svg>
