<svg id="Group_20" data-name="Group 20" xmlns="http://www.w3.org/2000/svg" width="51.475" height="49.288" viewBox="0 0 51.475 49.288">
  <path id="Path_80" data-name="Path 80" d="M835.307,571.492H822.095a1.078,1.078,0,0,1-1.079-1.077V552.6h-8.994v17.815a1.077,1.077,0,0,1-1.079,1.077H797.729a2.783,2.783,0,0,1-2.76-2.8V548.269a5.67,5.67,0,0,1-1.11.122,2.7,2.7,0,0,1-2.2-.911,3.885,3.885,0,0,1,.439-5.384l21.937-19a3.816,3.816,0,0,1,4.7-.157,1,1,0,0,1,.26.157l21.937,19a3.885,3.885,0,0,1,.439,5.384,2.7,2.7,0,0,1-2.2.911,5.548,5.548,0,0,1-1.11-.122V568.7A2.783,2.783,0,0,1,835.307,571.492Zm-12.134-2.156h12.134a.623.623,0,0,0,.606-.641V546.809a1.077,1.077,0,0,1,.488-.9,1.091,1.091,0,0,1,1.023-.087,5.247,5.247,0,0,0,1.755.411.785.785,0,0,0,.534-.129,1.713,1.713,0,0,0-.19-2.377L817.754,524.87a.986.986,0,0,1-.234-.146,1.612,1.612,0,0,0-2.069,0l-21.937,19a1.716,1.716,0,0,0-.19,2.377.791.791,0,0,0,.535.129,5.266,5.266,0,0,0,1.756-.411,1.081,1.081,0,0,1,1.511.988V568.7a.623.623,0,0,0,.6.641h12.136V551.521a1.077,1.077,0,0,1,1.077-1.079h11.152a1.078,1.078,0,0,1,1.079,1.079Z" transform="translate(-790.781 -522.205)" fill="#302e47"/>
</svg>
