<svg xmlns="http://www.w3.org/2000/svg" xmlns:xlink="http://www.w3.org/1999/xlink" width="81.324" height="82.42" viewBox="0 0 81.324 82.42">
  <defs>
    <clipPath id="clip-path">
      <rect id="Rectangle_2" data-name="Rectangle 2" width="81.324" height="82.42"/>
    </clipPath>
  </defs>
  <g id="Group_28" data-name="Group 28" transform="translate(0 0)">
    <g id="Group_27" data-name="Group 27" transform="translate(0 0)" clip-path="url(#clip-path)">
      <path id="Path_118" data-name="Path 118" d="M2884.859,840.786a1.439,1.439,0,0,0,.66-.545,2.209,2.209,0,0,0,.3-.9,9.868,9.868,0,0,0,.071-1.262,1.736,1.736,0,0,0-.487-1.305,2.407,2.407,0,0,0-1.693-.474h-1.262v4.677h1.262a2.915,2.915,0,0,0,1.148-.187Z" transform="translate(-2862.453 -796.451)"/>
      <path id="Path_119" data-name="Path 119" d="M2871.719,721.69q-2.581,0-2.582,1.32v7.114h-4.218l-.573-1.463a2.606,2.606,0,0,1-.718.674,6.033,6.033,0,0,1-1.248.617,9.522,9.522,0,0,1-1.836.458,15.635,15.635,0,0,1-2.453.173,11.765,11.765,0,0,1-3.457-.531,7.9,7.9,0,0,1-3.127-1.836,9.582,9.582,0,0,1-2.267-3.471,14.6,14.6,0,0,1-.875-5.436,13.35,13.35,0,0,1,.847-5.034,9.57,9.57,0,0,1,2.238-3.4,8.527,8.527,0,0,1,3.184-1.922,11.5,11.5,0,0,1,3.686-.6q4.1,0,6.14,1.55l.573-1.091h3.5v6.971l-3.7.288q-.574-4.132-4.16-4.132a5.589,5.589,0,0,0-2.28.416,3.39,3.39,0,0,0-1.506,1.32,6.267,6.267,0,0,0-.818,2.3,19.73,19.73,0,0,0-.244,3.342,20.021,20.021,0,0,0,.3,3.929,5.137,5.137,0,0,0,.889,2.166,2.486,2.486,0,0,0,1.42.918,8.477,8.477,0,0,0,1.864.187,8.968,8.968,0,0,0,1.449-.115,4.3,4.3,0,0,0,1.248-.387,2.462,2.462,0,0,0,.875-.7,1.65,1.65,0,0,0,.33-1.033v-1.262q0-1.32-2.582-1.32v-3.012h10.1v3.012Zm-.6,20.778a4.694,4.694,0,0,1-1.167,2.162,4.253,4.253,0,0,1-2.062,1.085,13.538,13.538,0,0,1-3.058.3h-7.435v-1.9q1.609,0,1.61-.832V735.3q0-.832-1.61-.832v-1.9h7.435a17.749,17.749,0,0,1,3.058.226,4.273,4.273,0,0,1,2.063.9,3.927,3.927,0,0,1,1.167,1.927,11.985,11.985,0,0,1,.37,3.31,13.891,13.891,0,0,1-.37,3.528Zm-16.019,3.545h-13.007v-1.9q1.609,0,1.61-.832V735.3q0-.832-1.61-.832v-1.9H2855.1v4.071l-2.352.09q0-1.9-1.719-1.9h-2.75v3.219h.688q.615,0,.777-1.881h2.027l-.272,5.645h-1.99q-.2-1.954-.669-1.954h-.56v3.89h2.1q2.676,0,2.768-3.021l2.388.126-.434,5.156Zm-14.688,0H2833.1v-1.9q1.1,0,1.1-.832v-3.238h-3.365v3.238q0,.832,1.1.832v1.9h-7.291v-1.9q1.609,0,1.61-.832V735.3q0-.832-1.61-.832v-1.9h7.291v1.9q-1.1,0-1.1.832v2.569h3.365V735.3q0-.832-1.1-.832v-1.9h7.309v1.9q-1.63,0-1.628.832v7.978q0,.832,1.628.832v1.9Zm-29.735-15.889v-3.012q2.552,0,2.553-1.32V713.429q0-1.319-2.553-1.32v-3.3h13.14a26.885,26.885,0,0,1,3.213.172,6.04,6.04,0,0,1,2.352.732,3.551,3.551,0,0,1,1.434,1.621,6.822,6.822,0,0,1,.488,2.812,5.363,5.363,0,0,1-.3,1.907,3.613,3.613,0,0,1-.847,1.321,4.094,4.094,0,0,1-1.3.845,7.309,7.309,0,0,1-1.65.459,7.08,7.08,0,0,1,4.06,1.463,4.524,4.524,0,0,1,1.448,3.644,9.606,9.606,0,0,1-.416,3.055,4.018,4.018,0,0,1-1.377,1.951,6,6,0,0,1-2.524,1.033,20.886,20.886,0,0,1-3.859.3Zm11.889,13.619a4.019,4.019,0,0,1-1.076,1.393,4.808,4.808,0,0,1-1.62.869,6.589,6.589,0,0,1-2.016.3,9.749,9.749,0,0,1-1.828-.142,7.857,7.857,0,0,1-1.2-.319q-.479-.177-.8-.319a1.539,1.539,0,0,0-.616-.142.725.725,0,0,0-.443.14,1.143,1.143,0,0,0-.335.492h-2.044V741.4l2.044-.108a2.34,2.34,0,0,0,1.266,2.027,6.529,6.529,0,0,0,3.057.615,4.28,4.28,0,0,0,1.728-.289,1.112,1.112,0,0,0,.642-1.122.832.832,0,0,0-.479-.768,4.61,4.61,0,0,0-1.239-.425q-.76-.162-1.7-.3a15.289,15.289,0,0,1-1.864-.389,6.888,6.888,0,0,1-1.682-.7,3.63,3.63,0,0,1-1.067-.95,3.361,3.361,0,0,1-.561-1.239,6.869,6.869,0,0,1-.163-1.565,4.22,4.22,0,0,1,.272-1.511,3.336,3.336,0,0,1,.832-1.248,3.966,3.966,0,0,1,1.411-.841,5.962,5.962,0,0,1,2.027-.307,9.385,9.385,0,0,1,1.745.135,7.569,7.569,0,0,1,1.158.307q.461.172.76.308a1.341,1.341,0,0,0,.552.136,1.034,1.034,0,0,0,.569-.136,1.605,1.605,0,0,0,.425-.461h1.809v4.341l-2.044.163a2.81,2.81,0,0,0-.471-1.176,2.574,2.574,0,0,0-.859-.751,4.039,4.039,0,0,0-1.193-.407,7.994,7.994,0,0,0-1.456-.127,6.312,6.312,0,0,0-.778.046,2.321,2.321,0,0,0-.634.163,1.054,1.054,0,0,0-.434.335.879.879,0,0,0-.163.543.829.829,0,0,0,.561.769,6.568,6.568,0,0,0,1.429.443q.869.182,1.927.362a13.076,13.076,0,0,1,2.052.525,4.405,4.405,0,0,1,2.162,1.456,4.2,4.2,0,0,1,.732,2.6,4.374,4.374,0,0,1-.389,1.891Zm-11.844-38.287q1.154,0,1.154-.6v-5.719q0-.6-1.154-.6v-1.361h5.874v1.361q-1.438,0-1.439.6V705.2h1.894a1.227,1.227,0,0,0,1.05-.512,3.377,3.377,0,0,0,.48-1.653l1.451.091-.311,3.7h-9v-1.362Zm10.66,0q1.167,0,1.167-.6v-5.719q0-.6-1.167-.6v-1.361h5.6v1.361q-1.155,0-1.153.6v5.719q0,.6,1.153.6v1.362h-5.6v-1.362Zm6.963-8.273H2838.4v3.968l-1.427.039q-.078-2.387-1.349-2.386h-.61v6.056q0,.6,1.167.6v1.362h-5.6v-1.362q1.153,0,1.154-.6V698.8h-.622q-1.271,0-1.349,2.386l-1.426-.039v-3.968Zm18.737,11.627v3.013q-2.554,0-2.553,1.319v12.65q0,1.32,2.553,1.32v3.012h-12.393v-3.012q2.583,0,2.583-1.32v-12.65q0-1.32-2.583-1.319V708.81Zm-7.208-11.627h10.063v3.968l-1.426.039q-.078-2.387-1.349-2.386h-.61v6.056q0,.6,1.167.6v1.362h-5.6v-1.362q1.153,0,1.154-.6V698.8h-.623q-1.27,0-1.348,2.386l-1.426-.039v-3.968Zm11.269,8.273q1.154,0,1.154-.6v-5.719q0-.6-1.154-.6v-1.361h5.874v1.361q-1.439,0-1.439.6V705.2h1.892a1.228,1.228,0,0,0,1.051-.512,3.38,3.38,0,0,0,.48-1.653l1.451.091-.311,3.7h-9v-1.362Zm10.529,0q1.153,0,1.154-.6v-5.719q0-.6-1.154-.6v-1.361h9.324V700.1l-1.686.065q0-1.361-1.232-1.361H2866.1v2.308h.493q.441,0,.558-1.349h1.453l-.2,4.046h-1.426q-.142-1.4-.48-1.4h-.4V705.2h1.5q1.92,0,1.984-2.165l1.712.091-.311,3.7h-9.324v-1.362Zm20.145-8.561-39.338-22.42a1.494,1.494,0,1,0-2.988,0l-39,22.038v6.1l3.367-1.9V755.4h62.6a6.542,6.542,0,0,0-.337-3.227,5.253,5.253,0,0,1,1.929,2.988s.588-4.578,2.7-6.687a15.388,15.388,0,0,0-.16,6.926h.064c.166-.866,1.178-5.718,3.323-7.3a14.238,14.238,0,0,0-.849,7.3h.125c.17-.826.72-2.978,1.965-3.7,0,0-.862,2.475.174,3.7h2.721V700.9l3.707,2.09v-6.1Z" transform="translate(-2800.487 -672.981)"/>
    </g>
  </g>
</svg>
